# 3ds Max Wavefront OBJ Exporter v0.97b - (c)2007 guruware
# File Created: 11.07.2021 06:41:37

#
# object floor_and_ceiling_pac3
#

v  -99.7285 194.7589 273.5982
v  171.7121 194.7589 273.5983
v  171.7121 194.7589 -745.6755
v  -99.4904 194.7589 -745.6755
v  -99.6987 194.7589 146.1890
v  171.7121 194.7589 146.1891
v  -99.6456 194.7589 -81.2364
v  171.7121 194.7589 -81.2364
v  8.8656 194.7589 146.1890
v  8.8975 189.7837 -81.2364
v  -99.6533 194.7589 -23.3593
v  -95.6294 194.7589 -36.9471
v  -89.2756 194.7589 -49.7117
v  -79.9893 194.7589 -59.5939
v  -67.2818 194.7589 -65.7703
v  -52.1304 194.7589 -68.3975
v  -33.3134 194.7589 -68.0842
v  -18.8952 194.7589 -63.2997
v  -6.6764 194.7589 -53.8293
v  2.6100 194.7589 -38.1824
v  8.8926 194.7589 -19.6533
v  -99.4904 189.7837 -745.6755
v  -99.6456 189.7837 -81.2364
v  -99.6533 189.7837 -23.3593
v  -95.6294 189.7837 -36.9471
v  -89.2756 189.7837 -49.7117
v  -79.9893 189.7837 -59.5939
v  -67.2818 189.7837 -65.7703
v  -52.1304 189.7837 -68.3975
v  -33.3134 189.7837 -68.0842
v  -18.8952 189.7837 -63.2997
v  -6.6764 189.7837 -53.8293
v  2.6100 189.7837 -38.1824
v  8.8926 189.7837 -19.6533
v  8.8656 189.7837 146.1890
v  -99.6987 189.7837 146.1890
v  -99.7285 189.7837 273.5982
v  171.7121 189.7837 273.5983
v  171.7121 189.7837 146.1891
v  171.7121 189.7837 -81.2364
v  171.7121 189.7837 -745.6755
v  -99.6533 192.7688 -21.5170
v  -94.1932 192.7688 -35.8135
v  -87.9157 192.7688 -48.4029
v  -79.0774 192.7688 -57.7442
v  -66.5562 192.7688 -63.8248
v  -52.0337 192.7688 -66.3606
v  -33.5677 192.7688 -65.6072
v  -20.1081 192.7688 -61.1700
v  -8.4277 192.7688 -51.9757
v  0.3272 192.7688 -37.0532
v  6.7860 192.7688 -17.8110
v  6.7590 192.7688 144.4916
v  -99.6987 192.7688 144.4916
v  189.7797 189.0750 291.7679
v  51.5278 189.0750 291.7679
v  51.5278 189.0750 751.6824
v  673.7957 189.0750 751.6824
v  673.7957 189.0750 -170.6440
v  189.7771 189.0750 -170.6440
v  672.5318 189.0750 -169.3801
v  191.0410 189.0750 -169.3801
v  191.0436 189.0750 293.0319
v  52.7917 189.0750 293.0319
v  52.7917 189.0750 750.4185
v  672.5318 189.0750 750.4185
v  671.5319 191.5047 -168.3801
v  192.0410 191.5047 -168.3801
v  192.0436 191.5047 294.0319
v  53.7917 191.5047 294.0319
v  53.7917 191.5047 749.4185
v  671.5319 191.5047 749.4185
v  670.2679 191.5047 -167.1162
v  193.3050 191.5047 -167.1162
v  193.3075 191.5047 295.2958
v  55.0557 191.5047 295.2958
v  55.0556 191.5047 748.1545
v  670.2679 191.5047 748.1545
v  669.2679 193.9347 -166.1162
v  194.3050 193.9347 -166.1162
v  194.3075 193.9347 296.2958
v  56.0557 193.9347 296.2958
v  56.0556 193.9347 747.1545
v  669.2679 193.9347 747.1545
v  -694.8002 3.4191 760.4688
v  694.8002 3.4191 760.4688
v  -694.8002 3.4192 -768.9955
v  -694.8002 -1.2919 760.4688
v  694.8002 -1.2919 760.4688
v  -694.8002 -1.2919 -768.9955
v  187.7802 3.4192 -768.9955
v  187.7802 3.4191 760.4688
v  187.7802 -1.2919 -768.9955
v  187.7802 -1.2919 760.4688
v  -694.8002 3.4192 -183.3622
v  694.8002 3.4192 -183.3621
v  -694.8002 -1.2919 -183.3622
v  694.8002 -1.2919 -183.3621
v  187.7802 3.4192 -183.3621
v  525.7935 3.4192 -183.3621
v  356.7869 3.4192 -183.3621
v  187.7802 3.4192 -378.5733
v  187.7802 3.4192 -573.7844
v  694.8002 3.4192 -768.9955
v  694.8002 -1.2919 -768.9955
v  525.7935 3.4192 -768.9955
v  356.7869 3.4192 -768.9955
v  525.7935 -1.2919 -768.9955
v  356.7869 -1.2919 -768.9955
v  694.8002 3.4192 -378.5733
v  694.8002 3.4192 -573.7844
v  694.8002 -1.2919 -378.5733
v  694.8002 -1.2919 -573.7844
v  356.7869 3.4192 -573.7844
v  356.7869 3.4192 -378.5732
v  525.7935 3.4192 -378.5733
v  525.7935 3.4192 -573.7844
v  187.7802 3.4192 -768.9955
v  187.7802 -1.2919 -768.9955
v  694.8002 3.4192 -183.3621
v  694.8002 -1.2919 -183.3621
v  187.7802 3.4192 -183.3621
v  525.7935 3.4192 -183.3621
v  356.7869 3.4192 -183.3621
v  187.7802 3.4192 -378.5733
v  187.7802 3.4192 -573.7844
v  -100.5073 3.4191 760.4688
v  -100.5073 -1.2919 760.4688
v  -100.5074 3.4192 -768.9955
v  -100.5074 -1.2919 -768.9955
v  -100.5074 3.4192 -183.3621
v  694.8002 3.4192 282.3075
v  694.8002 -1.2919 282.3075
v  187.7802 3.4192 282.3075
v  -694.8002 3.4192 282.3076
v  -694.8002 -1.2919 282.3076
v  -100.5073 3.4192 282.3076
# 137 vertices

vn -0.5773 -0.5773 -0.5774
vn 0.5774 -0.5774 -0.5774
vn 0.7071 -0.7071 -0.0000
vn 0.0000 -1.0000 -0.0000
vn -0.7071 -0.7071 -0.0001
vn -0.7990 -0.6013 -0.0002
vn -0.1705 -0.9854 -0.0000
vn 0.7071 -0.7071 -0.0000
vn 0.5774 -0.5774 0.5774
vn -0.5774 -0.5774 0.5773
vn -0.1705 -0.9854 -0.0000
vn -0.8997 0.3974 0.1804
vn 0.0000 -1.0000 -0.0000
vn 0.7071 -0.7071 -0.0000
vn 0.7071 -0.7071 -0.0000
vn -0.0641 -0.9210 0.3842
vn 0.0341 -0.8958 0.4431
vn -0.7071 -0.7071 -0.0001
vn 0.0000 -1.0000 -0.0000
vn -0.7070 0.0000 -0.7072
vn -0.5773 -0.5773 -0.5774
vn -0.7071 -0.7071 -0.0001
vn -1.0000 0.0000 -0.0002
vn -1.0000 0.0000 -0.0002
vn -0.7071 -0.7071 -0.0001
vn -0.1594 -0.7327 0.6616
vn -0.1372 0.0732 0.9878
vn -0.2311 0.6609 0.7140
vn -0.2311 0.6609 0.7140
vn -0.1372 0.0732 0.9878
vn 0.9137 0.0973 0.3947
vn 0.6957 0.6609 0.2813
vn 0.6957 0.6609 0.2813
vn 0.9137 0.0973 0.3947
vn 0.8215 0.1029 0.5608
vn 0.5958 0.6834 0.4219
vn 0.5958 0.6834 0.4219
vn 0.8215 0.1029 0.5608
vn 0.6004 0.1067 0.7925
vn 0.4079 0.7146 0.5683
vn 0.4079 0.7146 0.5683
vn 0.6004 0.1067 0.7925
vn 0.3040 0.1055 0.9468
vn 0.2148 0.7215 0.6582
vn 0.2148 0.7215 0.6582
vn 0.3040 0.1055 0.9468
vn 0.0667 0.1036 0.9924
vn 0.0534 0.7155 0.6966
vn 0.0534 0.7155 0.6966
vn 0.0667 0.1036 0.9924
vn -0.1833 0.1074 0.9772
vn -0.1023 0.7806 0.6166
vn -0.1023 0.7806 0.6166
vn -0.1833 0.1074 0.9772
vn -0.4694 0.1093 0.8762
vn -0.2985 0.7760 0.5556
vn -0.2985 0.7760 0.5556
vn -0.4694 0.1093 0.8762
vn -0.7561 0.1101 0.6451
vn -0.4600 0.7868 0.4115
vn -0.4600 0.7868 0.4115
vn -0.7561 0.1101 0.6451
vn -0.9062 0.1055 0.4095
vn -0.5602 0.7871 0.2580
vn -0.5602 0.7871 0.2580
vn -0.9062 0.1055 0.4095
vn -0.9877 0.1064 0.1143
vn -0.6204 0.7737 0.1285
vn -0.6204 0.7737 0.1285
vn -0.9877 0.1064 0.1143
vn -0.9929 0.1194 -0.0002
vn -0.6878 0.7259 -0.0001
vn -1.0000 0.0002 -0.0002
vn -1.0000 0.0000 -0.0000
vn -0.7990 -0.6013 -0.0002
vn -0.5774 -0.5774 0.5773
vn -0.7072 0.0000 0.7070
vn -0.7072 0.0000 0.7070
vn -0.5774 -0.5774 0.5773
vn 0.5774 -0.5774 0.5774
vn 0.7071 0.0000 0.7071
vn 0.7071 0.0000 0.7071
vn 0.5774 -0.5774 0.5774
vn 0.7071 -0.7071 -0.0000
vn 1.0000 0.0000 -0.0000
vn 1.0000 0.0000 -0.0000
vn 0.7071 -0.7071 -0.0000
vn 0.7071 -0.7071 -0.0000
vn 1.0000 0.0000 -0.0000
vn 1.0000 0.0000 -0.0000
vn 0.7071 -0.7071 -0.0000
vn 0.5774 -0.5774 -0.5774
vn 0.7071 0.0000 -0.7071
vn 0.7071 0.0000 -0.7071
vn 0.5774 -0.5774 -0.5774
vn -0.5773 -0.5773 -0.5774
vn -0.7070 0.0000 -0.7072
vn -0.1837 -0.9215 0.3423
vn 0.0000 -1.0000 -0.0000
vn -0.2811 -0.9263 0.2509
vn -0.0641 -0.9210 0.3842
vn 0.0000 -1.0000 -0.0000
vn -0.1837 -0.9215 0.3423
vn -0.3598 -0.9182 0.1656
vn 0.0000 -1.0000 -0.0000
vn -0.8997 0.3974 0.1804
vn -0.2811 -0.9263 0.2509
vn 0.0000 -1.0000 -0.0000
vn -0.3598 -0.9182 0.1656
vn -0.7071 -0.7071 -0.0001
vn 0.3671 -0.8934 0.2588
vn 0.4415 -0.8796 0.1773
vn -0.7071 -0.7071 -0.0001
vn 0.2476 -0.9061 0.3431
vn 0.3671 -0.8934 0.2588
vn -0.7071 -0.7071 -0.0001
vn 0.1331 -0.9030 0.4084
vn 0.2476 -0.9061 0.3431
vn -0.7071 -0.7071 -0.0001
vn 0.0341 -0.8958 0.4431
vn 0.1331 -0.9030 0.4084
vn -0.7071 -0.7071 -0.0001
vn 0.4415 -0.8796 0.1773
vn -0.1594 -0.7327 0.6616
vn 0.9137 0.0973 0.3947
vn -0.1372 0.0732 0.9878
vn -0.1594 -0.7327 0.6616
vn 0.4415 -0.8796 0.1773
vn 0.8215 0.1029 0.5608
vn 0.9137 0.0973 0.3947
vn 0.4415 -0.8796 0.1773
vn 0.3671 -0.8934 0.2588
vn 0.6004 0.1067 0.7925
vn 0.8215 0.1029 0.5608
vn 0.3671 -0.8934 0.2588
vn 0.2476 -0.9061 0.3431
vn 0.3040 0.1055 0.9468
vn 0.6004 0.1067 0.7925
vn 0.2476 -0.9061 0.3431
vn 0.1331 -0.9030 0.4084
vn 0.0667 0.1036 0.9924
vn 0.3040 0.1055 0.9468
vn 0.1331 -0.9030 0.4084
vn 0.0341 -0.8958 0.4431
vn -0.1833 0.1074 0.9772
vn 0.0667 0.1036 0.9924
vn 0.0341 -0.8958 0.4431
vn -0.0641 -0.9210 0.3842
vn -0.4694 0.1093 0.8762
vn -0.1833 0.1074 0.9772
vn -0.0641 -0.9210 0.3842
vn -0.1837 -0.9215 0.3423
vn -0.7561 0.1101 0.6451
vn -0.4694 0.1093 0.8762
vn -0.1837 -0.9215 0.3423
vn -0.2811 -0.9263 0.2509
vn -0.9062 0.1055 0.4095
vn -0.7561 0.1101 0.6451
vn -0.2811 -0.9263 0.2509
vn -0.3598 -0.9182 0.1656
vn -0.9877 0.1064 0.1143
vn -0.9062 0.1055 0.4095
vn -0.3598 -0.9182 0.1656
vn -0.8997 0.3974 0.1804
vn -0.9929 0.1194 -0.0002
vn -0.9877 0.1064 0.1143
vn -0.8997 0.3974 0.1804
vn -0.1705 -0.9854 -0.0000
vn -0.4525 -0.7687 0.4520
vn -0.4525 -0.7687 -0.4520
vn 0.1910 -0.9628 0.1911
vn 0.4525 -0.7688 0.4520
vn -0.0000 -1.0000 -0.0000
vn -0.1910 -0.9628 0.1911
vn 0.1909 -0.9628 0.1910
vn 0.0000 -1.0000 -0.0000
vn 0.0000 -1.0000 -0.0000
vn 0.1909 -0.9628 0.1910
vn 0.4524 -0.7688 0.4520
vn 0.0000 -1.0000 -0.0000
vn 0.0000 -1.0000 -0.0000
vn 0.4524 -0.7688 0.4520
vn 0.1910 -0.9628 0.1910
vn 0.0000 -1.0000 -0.0000
vn 0.0000 -1.0000 -0.0000
vn 0.1910 -0.9628 0.1910
vn 0.1909 -0.9628 -0.1910
vn -0.0000 -1.0000 -0.0000
vn -0.0000 -1.0000 -0.0000
vn 0.1909 -0.9628 -0.1910
vn -0.1910 -0.9628 -0.1911
vn 0.0000 -1.0000 -0.0000
vn 0.0000 -1.0000 -0.0000
vn -0.1910 -0.9628 -0.1911
vn -0.1910 -0.9628 0.1911
vn -0.0000 -1.0000 -0.0000
vn -0.1910 -0.9628 0.1911
vn -0.4525 -0.7688 0.4520
vn 0.4524 -0.7688 0.4520
vn 0.1909 -0.9628 0.1910
vn 0.1909 -0.9628 0.1910
vn 0.4524 -0.7688 0.4520
vn 0.1909 -0.9628 0.1910
vn 0.4524 -0.7688 0.4520
vn 0.4524 -0.7688 0.4520
vn 0.1909 -0.9628 0.1910
vn 0.4524 -0.7688 0.4520
vn 0.1910 -0.9628 0.1910
vn 0.1910 -0.9628 0.1910
vn 0.4524 -0.7688 0.4520
vn 0.4524 -0.7688 -0.4520
vn 0.1909 -0.9628 -0.1910
vn 0.1909 -0.9628 -0.1910
vn 0.4524 -0.7688 -0.4520
vn -0.4525 -0.7688 -0.4520
vn -0.1910 -0.9628 -0.1911
vn -0.1910 -0.9628 -0.1911
vn -0.4525 -0.7688 -0.4520
vn -0.4525 -0.7688 0.4520
vn -0.1910 -0.9628 0.1911
vn -0.4525 -0.7688 0.4520
vn -0.1910 -0.9628 0.1911
vn 0.1910 -0.9628 0.1911
vn 0.4524 -0.7688 0.4520
vn 0.4524 -0.7688 0.4520
vn 0.1910 -0.9628 0.1911
vn 0.4525 -0.7687 0.4520
vn 0.1909 -0.9628 0.1910
vn 0.1909 -0.9628 0.1910
vn 0.4525 -0.7687 0.4520
vn 0.1910 -0.9628 0.1911
vn 0.4524 -0.7688 0.4520
vn 0.4524 -0.7688 0.4520
vn 0.1910 -0.9628 0.1911
vn 0.1910 -0.9628 -0.1911
vn 0.4524 -0.7688 -0.4520
vn 0.4524 -0.7688 -0.4520
vn 0.1910 -0.9628 -0.1911
vn -0.1910 -0.9628 -0.1911
vn -0.4525 -0.7688 -0.4520
vn -0.4525 -0.7688 -0.4520
vn -0.1910 -0.9628 -0.1911
vn -0.1910 -0.9628 0.1911
vn -0.4525 -0.7688 0.4520
vn -0.1910 -0.9628 0.1911
vn -0.4525 -0.7687 0.4520
vn 0.4525 -0.7688 0.4520
vn 0.1910 -0.9628 0.1911
vn 0.1910 -0.9628 0.1911
vn 0.4525 -0.7688 0.4520
vn 0.1910 -0.9628 0.1911
vn 0.4525 -0.7687 0.4520
vn 0.4525 -0.7687 0.4520
vn 0.1910 -0.9628 0.1911
vn 0.4525 -0.7687 0.4520
vn 0.1910 -0.9628 0.1911
vn 0.1910 -0.9628 0.1911
vn 0.4525 -0.7687 0.4520
vn 0.4525 -0.7687 -0.4520
vn 0.1910 -0.9628 -0.1911
vn 0.1910 -0.9628 -0.1911
vn 0.4525 -0.7687 -0.4520
vn -0.4525 -0.7687 -0.4520
vn -0.1910 -0.9628 -0.1911
vn -0.1910 -0.9628 -0.1911
vn -0.4525 -0.7687 -0.4520
vn -0.4525 -0.7687 0.4520
vn -0.1910 -0.9628 0.1911
vn -0.4525 -0.7687 -0.4520
vn 0.4525 -0.7687 -0.4520
vn 0.4525 -0.7687 0.4520
vn 0.1910 -0.9628 0.1911
vn -0.5774 0.5774 0.5774
vn 0.0000 0.7071 0.7071
vn 0.0000 1.0000 0.0000
vn -0.7071 0.7071 0.0000
vn -0.5774 0.5774 0.5774
vn -0.7071 0.7071 0.0000
vn -1.0000 0.0000 -0.0000
vn -0.7071 0.0000 0.7071
vn -0.5774 0.5774 -0.5774
vn 0.0000 0.7071 -0.7071
vn 0.0000 0.0000 -1.0000
vn -0.7071 0.0000 -0.7071
vn 0.5774 0.5774 0.5774
vn -0.0000 0.7071 0.7071
vn 0.0000 0.0000 1.0000
vn 0.7071 0.0000 0.7071
vn -0.0000 0.7071 0.7071
vn 0.5774 0.5774 0.5774
vn 0.7071 0.7071 0.0000
vn -0.0000 1.0000 0.0000
vn -0.0000 0.7071 0.7071
vn 0.0000 0.7071 0.7071
vn 0.0000 0.0000 1.0000
vn 0.0000 0.0000 1.0000
vn -0.0000 1.0000 0.0000
vn 0.0000 1.0000 0.0000
vn 0.0000 1.0000 0.0000
vn 0.0000 0.7071 -0.7071
vn 0.0000 0.7071 -0.7071
vn -0.0000 1.0000 0.0000
vn -0.7071 0.7071 0.0000
vn -0.5774 0.5774 -0.5774
vn -0.7071 0.0000 -0.7071
vn -1.0000 0.0000 -0.0000
vn 0.7071 0.7071 0.0000
vn 0.7071 0.7071 0.0000
vn 1.0000 0.0000 -0.0000
vn 1.0000 0.0000 -0.0000
vn 0.7071 0.7071 0.0000
vn 0.7071 0.7071 0.0000
vn 1.0000 0.0000 -0.0000
vn 1.0000 0.0000 -0.0000
vn 0.0000 0.7071 -0.7071
vn 0.0000 0.7071 -0.7071
vn 0.0000 0.0000 -1.0000
vn 0.0000 0.0000 -1.0000
vn 0.0000 1.0000 0.0000
vn 0.0000 1.0000 0.0000
vn 0.0000 1.0000 0.0000
vn 0.0000 1.0000 0.0000
vn 0.0000 0.7071 -0.7071
vn 0.5774 0.5774 -0.5774
vn 0.7071 0.0000 -0.7071
vn 0.0000 0.0000 -1.0000
vn 0.0000 0.0000 -1.0000
vn 0.0000 0.0000 -1.0000
vn 0.0000 0.7071 -0.7071
vn 0.0000 0.7071 -0.7071
vn 0.0000 1.0000 0.0000
vn -0.0000 1.0000 0.0000
vn 0.0000 1.0000 0.0000
vn 0.0000 1.0000 0.0000
vn 0.7071 0.7071 0.0000
vn 0.7071 0.7071 0.0000
vn 0.0000 1.0000 0.0000
vn 0.0000 1.0000 0.0000
vn 0.7071 0.7071 0.0000
vn 0.7071 0.7071 0.0000
vn 1.0000 0.0000 -0.0000
vn 1.0000 0.0000 -0.0000
vn 1.0000 0.0000 -0.0000
vn 0.7071 0.0000 -0.7071
vn 0.5774 0.5774 -0.5774
vn 0.7071 0.7071 0.0000
vn 0.0000 1.0000 0.0000
vn 0.0000 1.0000 0.0000
vn 0.0000 1.0000 0.0000
vn 0.0000 1.0000 0.0000
vn 0.0000 1.0000 0.0000
vn 0.0000 0.7071 -0.7071
vn 0.0000 0.7071 -0.7071
vn 0.0000 1.0000 0.0000
vn -0.0000 1.0000 0.0000
vn 0.0000 1.0000 0.0000
vn 0.0000 1.0000 0.0000
vn 0.0000 1.0000 0.0000
vn 0.0000 1.0000 0.0000
vn 0.0000 0.7071 -0.7071
vn 0.0000 0.7071 -0.7071
vn 0.0000 1.0000 0.0000
vn 0.7071 0.7071 0.0000
vn 0.5774 0.5774 -0.5774
vn 0.0000 0.7071 -0.7071
vn 0.0000 1.0000 0.0000
vn 0.0000 1.0000 0.0000
vn 0.0000 1.0000 0.0000
vn 0.7071 0.7071 0.0000
vn 0.7071 0.7071 0.0000
vn 0.0000 0.7071 0.7071
vn -0.0000 0.7071 0.7071
vn -0.0000 1.0000 0.0000
vn 0.0000 1.0000 0.0000
vn 0.0000 0.7071 -0.7071
vn 0.0000 0.7071 -0.7071
vn 0.0000 0.0000 -1.0000
vn 0.0000 0.0000 -1.0000
vn 0.0000 0.7071 0.7071
vn -0.5774 0.5774 0.5774
vn -0.7071 0.0000 0.7071
vn 0.0000 0.0000 1.0000
vn 0.0000 0.7071 -0.7071
vn -0.5774 0.5774 -0.5774
vn -0.7071 0.7071 0.0000
vn -0.0000 1.0000 0.0000
vn 0.0000 1.0000 0.0000
vn -0.0000 1.0000 0.0000
vn -0.7071 0.7071 0.0000
vn -0.7071 0.7071 0.0000
vn -0.7071 0.7071 0.0000
vn -0.7071 0.7071 0.0000
vn -1.0000 0.0000 -0.0000
vn -1.0000 0.0000 -0.0000
vn 0.7071 0.7071 0.0000
vn 0.7071 0.7071 0.0000
vn -0.0000 1.0000 0.0000
vn -0.0000 1.0000 0.0000
vn -0.0000 1.0000 0.0000
vn -0.0000 1.0000 0.0000
vn 0.7071 0.7071 0.0000
vn 0.5774 0.5774 0.5774
vn 0.7071 0.0000 0.7071
vn 1.0000 0.0000 -0.0000
vn -0.0000 1.0000 0.0000
vn -0.0000 1.0000 0.0000
vn -0.0000 1.0000 0.0000
vn 0.0000 1.0000 0.0000
# 408 vertex normals

vt 0.5264 0.9966 0.0000
vt 0.9948 0.9966 0.0000
vt 0.9912 0.5345 0.0000
vt 0.7113 0.5345 0.0000
vt 0.5247 0.5345 0.0000
vt 0.5246 0.2301 0.0000
vt 0.7113 0.2301 0.0000
vt 0.9912 0.2301 0.0000
vt 0.9912 0.0596 0.0000
vt 0.5246 0.0596 0.0000
vt 0.7113 0.4521 0.0000
vt 0.6387 0.5169 0.0000
vt 0.6064 0.5173 0.0000
vt 0.5264 0.9966 0.0000
vt 0.5247 0.5345 0.0000
vt 0.5247 0.4571 0.0000
vt 0.5247 0.4546 0.0000
vt 0.5247 0.4571 0.0000
vt 0.5341 0.4737 0.0000
vt 0.5316 0.4752 0.0000
vt 0.5449 0.4906 0.0000
vt 0.5425 0.4923 0.0000
vt 0.5601 0.5031 0.0000
vt 0.5585 0.5056 0.0000
vt 0.5816 0.5112 0.0000
vt 0.5803 0.5138 0.0000
vt 0.6066 0.5146 0.0000
vt 0.6064 0.5173 0.0000
vt 0.6383 0.5136 0.0000
vt 0.6387 0.5169 0.0000
vt 0.6614 0.5077 0.0000
vt 0.6635 0.5105 0.0000
vt 0.6815 0.4954 0.0000
vt 0.6845 0.4978 0.0000
vt 0.6966 0.4754 0.0000
vt 0.7005 0.4769 0.0000
vt 0.7077 0.4496 0.0000
vt 0.7113 0.4521 0.0000
vt 0.7076 0.2324 0.0000
vt 0.7113 0.2301 0.0000
vt 0.5246 0.2301 0.0000
vt 0.5246 0.2324 0.0000
vt 0.5246 0.0596 0.0000
vt 0.9912 0.0596 0.0000
vt 0.9912 0.2301 0.0000
vt 0.9912 0.5345 0.0000
vt 0.9948 0.9966 0.0000
vt 0.6635 0.5105 0.0000
vt 0.6845 0.4978 0.0000
vt 0.7005 0.4769 0.0000
vt 0.5425 0.4923 0.0000
vt 0.5316 0.4752 0.0000
vt 0.5585 0.5056 0.0000
vt 0.5803 0.5138 0.0000
vt 0.9948 0.0606 0.0000
vt 0.7136 0.0606 0.0000
vt 0.5261 0.0606 0.0000
vt 0.5261 0.0606 0.0000
vt 0.9948 0.0606 0.0000
vt 0.9966 0.9927 0.0000
vt 0.9966 0.0635 0.0000
vt 0.6382 0.5223 0.0000
vt 0.6382 0.9927 0.0000
vt 1.0000 0.9973 0.0000
vt 0.9990 0.9960 0.0000
vt 0.6357 0.9960 0.0000
vt 0.6348 0.9973 0.0000
vt 0.6357 0.5256 0.0000
vt 0.6348 0.5269 0.0000
vt 0.5314 0.5256 0.0000
vt 0.5304 0.5269 0.0000
vt 0.5314 0.0602 0.0000
vt 0.5304 0.0589 0.0000
vt 0.9990 0.0602 0.0000
vt 1.0000 0.0589 0.0000
vt 0.9983 0.9950 0.0000
vt 0.6365 0.9950 0.0000
vt 0.6365 0.5246 0.0000
vt 0.5322 0.5246 0.0000
vt 0.5322 0.0612 0.0000
vt 0.9983 0.0612 0.0000
vt 0.9973 0.9937 0.0000
vt 0.6374 0.9937 0.0000
vt 0.6374 0.5233 0.0000
vt 0.5331 0.5233 0.0000
vt 0.5331 0.0625 0.0000
vt 0.9973 0.0625 0.0000
vt 0.5339 0.5223 0.0000
vt 0.5339 0.0635 0.0000
vt 0.0035 0.5260 -1.9869
vt 0.4763 0.5254 -1.9869
vt 0.0049 0.9908 -1.9869
vt 0.1758 -5.5009 -5.9269
vt -2.9521 -5.5009 6.8220
vt -2.8020 -5.5009 -5.9269
vt 0.1758 -5.4899 -5.9269
vt -2.8020 -5.4899 -5.9269
vt 0.1758 -5.4899 6.3101
vt 0.1758 -5.5009 6.3101
vt -2.9521 -5.4899 6.8220
vt 0.1503 -5.4899 -5.9269
vt -2.9521 -5.4899 -5.9269
vt -2.9521 -5.5009 -5.9269
vt 0.1503 -5.5009 -5.9269
vt 0.9968 0.9957 -1.9869
vt -1.7946 -5.4899 6.3101
vt 0.4763 0.5254 -1.9869
vt -0.9817 -5.4899 -5.9269
vt -1.7946 -5.5009 6.3101
vt -0.9817 -5.5009 -5.9269
vt 0.0016 0.9854 -1.9869
vt -1.6618 -5.4899 -5.9269
vt 0.4763 0.9926 -1.9869
vt -1.1145 -5.4899 6.8220
vt -1.6618 -5.5009 -5.9269
vt -1.1145 -5.5009 6.8220
vt 0.0077 0.9926 -1.9869
vt 0.3218 0.9926 -1.9869
vt 0.1645 0.9926 -1.9869
vt 0.9968 0.3726 -1.9869
vt 0.9968 0.6842 -1.9869
vt -2.9266 -5.5009 6.3101
vt -2.9266 -5.4899 6.3101
vt 0.0257 -5.4899 6.8220
vt 0.0257 -5.5009 6.8220
vt -2.5493 -5.4899 6.3101
vt -2.1720 -5.4899 6.3101
vt -2.5493 -5.5009 6.3101
vt -2.1720 -5.5009 6.3101
vt -0.7344 -5.4899 6.8220
vt -0.3543 -5.4899 6.8220
vt -0.7344 -5.5009 6.8220
vt -0.3543 -5.5009 6.8220
vt 0.4763 0.9926 -1.9869
vt 0.0077 0.9926 -1.9869
vt 0.0077 0.5254 -1.9869
vt 0.4763 0.5254 -1.9869
vt 0.4763 0.9926 -1.9869
vt 0.4763 0.5254 -1.9869
vt -1.7946 -5.4899 6.3101
vt -1.7946 -5.5009 6.3101
vt -1.1145 -5.4899 6.8220
vt -1.1145 -5.5009 6.8220
vt 0.0077 0.5254 -1.9869
vt 0.0077 0.5254 -1.9869
vt 0.4763 0.5254 -1.9869
vt 0.0077 0.9926 -1.9869
vt 0.0077 0.9926 -1.9869
vt 0.4763 0.9926 -1.9869
vt 0.4774 0.5260 -1.9869
vt -1.6253 -5.4899 -5.9269
vt -1.6253 -5.5009 -5.9269
vt 0.4743 0.9908 -1.9869
vt -1.1510 -5.4899 6.3101
vt -1.1510 -5.5009 6.3101
vt 0.4761 0.9854 -1.9869
vt 0.4763 0.9926 -1.9869
vt -2.0212 -5.4899 6.8220
vt -2.0212 -5.5009 6.8220
vt 0.4763 0.9926 -1.9869
vt 0.0035 0.9911 -1.9869
vt -0.7552 -5.4899 -5.9269
vt -0.7552 -5.5009 -5.9269
vt 0.4774 0.9911 -1.9869
vt 0.9968 0.0610 -1.9869
vt 0.5290 0.9957 -1.9869
vt 0.5290 0.0610 -1.9869
vt 0.9971 0.7681 -1.9869
vt 0.5294 0.7681 -1.9869
vt 0.9971 0.0606 -1.9869
vt 0.5294 0.0606 -1.9869
vt 0.4763 0.5254 -1.9869
vt 0.0077 0.5254 -1.9869
vt 0.0077 0.5254 -1.9869
vt 0.0077 0.9926 -1.9869
vt 0.0077 0.5254 -1.9869
vt 0.0077 0.9926 -1.9869
vt 0.0049 0.5219 -1.9869
vt 0.4743 0.5219 -1.9869
vt 0.0016 0.5214 -1.9869
vt 0.4761 0.5214 -1.9869
# 181 texture coords

o floor_and_ceiling_pac3
g floor_and_ceiling_pac3
s 1
f 22/1/1 41/2/2 40/55/3 10/56/4 23/57/5 
f 36/6/6 35/7/7 39/8/8 38/9/9 37/10/10 
f 35/7/11 34/11/12 10/4/13 40/3/14 39/8/15 
f 30/12/16 29/13/17 23/5/18 10/4/19 
s 2
f 4/14/20 22/1/21 23/57/22 7/58/23 
f 7/15/24 23/5/25 24/16/26 42/17/27 11/18/28 
s 1
f 11/18/29 42/17/30 43/19/31 12/20/32 
f 12/20/33 43/19/34 44/21/35 13/22/36 
f 13/22/37 44/21/38 45/23/39 14/24/40 
f 14/24/41 45/23/42 46/25/43 15/26/44 
f 15/26/45 46/25/46 47/27/47 16/28/48 
f 16/28/49 47/27/50 48/29/51 17/30/52 
f 17/30/53 48/29/54 49/31/55 18/32/56 
f 18/32/57 49/31/58 50/33/59 19/34/60 
f 19/34/61 50/33/62 51/35/63 20/36/64 
f 20/36/65 51/35/66 52/37/67 21/38/68 
f 21/38/69 52/37/70 53/39/71 9/40/72 
s 2
f 5/41/73 54/42/74 36/6/75 37/10/76 1/43/77 
s 4
f 1/43/78 37/10/79 38/9/80 2/44/81 
s 2
f 2/44/82 38/9/83 39/8/84 6/45/85 
f 6/45/86 39/8/87 40/3/88 8/46/89 
f 8/59/90 40/55/91 41/2/92 3/47/93 
s 4
f 3/47/94 41/2/95 22/1/96 4/14/97 
s 1
f 31/48/98 10/4/99 32/49/100 
f 30/12/101 10/4/102 31/48/103 
f 33/50/104 10/4/105 34/11/106 
f 32/49/107 10/4/108 33/50/109 
f 23/5/110 26/51/111 25/52/112 
f 23/5/113 27/53/114 26/51/115 
f 23/5/116 28/54/117 27/53/118 
f 23/5/119 29/13/120 28/54/121 
f 23/5/122 25/52/123 24/16/124 
f 43/19/125 42/17/126 24/16/127 25/52/128 
f 44/21/129 43/19/130 25/52/131 26/51/132 
f 45/23/133 44/21/134 26/51/135 27/53/136 
f 46/25/137 45/23/138 27/53/139 28/54/140 
f 47/27/141 46/25/142 28/54/143 29/13/144 
f 48/29/145 47/27/146 29/13/147 30/12/148 
f 49/31/149 48/29/150 30/12/151 31/48/152 
f 50/33/153 49/31/154 31/48/155 32/49/156 
f 51/35/157 50/33/158 32/49/159 33/50/160 
f 52/37/161 51/35/162 33/50/163 34/11/164 
f 53/39/165 52/37/166 34/11/167 35/7/168 
f 79/60/169 84/61/170 81/62/171 80/63/172 
s off
f 59/64/173 61/65/174 62/66/175 60/67/176 
f 60/67/177 62/66/178 63/68/179 55/69/180 
f 55/69/181 63/68/182 64/70/183 56/71/184 
f 56/71/185 64/70/186 65/72/187 57/73/188 
f 57/73/189 65/72/190 66/74/191 58/75/192 
f 58/75/193 66/74/194 61/65/195 59/64/196 
f 61/65/197 67/76/198 68/77/199 62/66/200 
f 62/66/201 68/77/202 69/78/203 63/68/204 
f 63/68/205 69/78/206 70/79/207 64/70/208 
f 64/70/209 70/79/210 71/80/211 65/72/212 
f 65/72/213 71/80/214 72/81/215 66/74/216 
f 66/74/217 72/81/218 67/76/219 61/65/220 
f 67/76/221 73/82/222 74/83/223 68/77/224 
f 68/77/225 74/83/226 75/84/227 69/78/228 
f 69/78/229 75/84/230 76/85/231 70/79/232 
f 70/79/233 76/85/234 77/86/235 71/80/236 
f 71/80/237 77/86/238 78/87/239 72/81/240 
f 72/81/241 78/87/242 73/82/243 67/76/244 
f 73/82/245 79/60/246 80/63/247 74/83/248 
f 74/83/249 80/63/250 81/62/251 75/84/252 
f 75/84/253 81/62/254 82/88/255 76/85/256 
f 76/85/257 82/88/258 83/89/259 77/86/260 
f 77/86/261 83/89/262 84/61/263 78/87/264 
f 78/87/265 84/61/266 79/60/267 73/82/268 
s 1
f 84/61/269 83/89/270 82/88/271 81/62/272 
f 85/90/273 127/150/274 137/164/275 135/161/276 
s 2
f 85/96/277 135/162/278 136/163/279 88/93/280 
s 4
f 87/98/281 129/154/282 130/155/283 90/99/284 
f 86/101/285 92/108/286 94/110/287 89/104/288 
s 1
f 92/174/289 86/91/290 132/157/291 134/175/292 
s 4
f 92/108/293 127/151/294 128/152/295 94/110/296 
s 1
f 99/165/297 102/120/298 103/121/299 91/105/300 129/166/301 131/167/302 
s 2
f 95/112/303 87/97/304 90/95/305 97/115/306 
f 96/114/307 132/158/308 133/159/309 98/116/310 
f 111/131/311 110/130/312 112/132/313 113/133/314 
s 4
f 107/127/315 106/126/316 108/128/317 109/129/318 
s 1
f 114/135/319 115/136/320 116/137/321 117/138/322 
s 4
f 106/126/323 104/123/324 105/122/325 108/128/326 
f 109/129/327 119/141/328 118/140/329 107/127/330 
s 1
f 126/148/331 125/145/332 115/137/333 114/138/334 
f 110/135/335 111/136/336 117/137/337 116/138/338 
s 2
f 110/130/339 120/142/340 121/143/341 112/132/342 
f 113/133/343 105/125/344 104/124/345 111/131/346 
s 1
f 115/135/347 124/145/348 123/139/349 116/138/350 
f 117/135/351 106/136/352 107/137/353 114/138/354 
f 125/147/355 122/144/356 124/146/357 115/134/358 
f 114/135/359 107/136/360 118/139/361 126/149/362 
f 111/135/363 104/136/364 106/137/365 117/138/366 
f 116/135/367 123/145/368 120/139/369 110/138/370 
f 127/176/371 92/107/372 134/160/373 137/177/374 
s 4
f 129/154/375 91/106/376 93/109/377 130/155/378 
f 127/151/379 85/102/380 88/103/381 128/152/382 
s 1
f 129/153/383 87/92/384 95/178/385 131/179/386 
f 137/181/387 131/156/388 95/111/389 135/180/390 
s 2
f 135/162/391 95/112/392 97/115/393 136/163/394 
s 1
f 132/172/395 96/113/396 100/118/397 101/119/398 99/117/399 134/173/400 
s 2
f 132/158/401 86/100/402 89/94/403 133/159/404 
s 1
f 134/170/405 99/168/406 131/169/407 137/171/408 
# 93 polygons - 9 triangles

