# 3ds Max Wavefront OBJ Exporter v0.97b - (c)2007 guruware
# File Created: 10.07.2021 12:14:58

#
# object House
#

v  -692.7222 -0.0000 760.4688
v  -692.7222 0.0000 -760.4688
v  -99.0067 0.0000 -760.4688
v  -99.0067 -0.0000 760.4688
v  -692.7222 407.7289 760.4688
v  -99.0067 528.4828 760.4687
v  -99.0067 528.4830 -760.4688
v  -692.7222 407.7290 -760.4688
v  -99.0067 234.0932 760.4688
v  -692.7222 232.3222 760.4688
v  692.7222 -0.0000 760.4688
v  692.7222 0.0000 -760.4688
v  692.7222 232.3222 -760.4688
v  692.7222 232.3222 760.4688
v  101.1326 0.0000 -760.4688
v  101.1326 234.0868 -760.4688
v  -692.7222 232.3222 -760.4688
v  0.0000 0.0000 -760.4688
v  101.1326 -0.0000 760.4688
v  0.0000 -0.0000 760.4688
v  0.0000 548.6195 760.4688
v  101.1326 528.0505 760.4688
v  101.1326 528.0505 -760.4688
v  0.0000 548.6196 -760.4688
v  101.1326 234.0868 760.4688
v  0.0000 234.3885 760.4688
v  -692.7222 388.5778 796.1216
v  -99.0067 509.3317 796.1216
v  -99.0067 528.4828 796.1216
v  -692.7222 407.7289 796.1216
v  0.0000 529.4683 796.1216
v  101.1326 508.8993 796.1216
v  101.1326 528.0505 796.1216
v  0.0000 548.6195 796.1216
v  728.3750 381.9972 760.4688
v  728.3750 381.9973 -760.4688
v  728.3750 401.1484 -760.4688
v  728.3750 401.1483 760.4688
v  692.7222 388.5779 -796.1216
v  101.1326 508.8994 -796.1216
v  101.1326 528.0505 -796.1216
v  692.7222 407.7290 -796.1216
v  0.0000 529.4685 -796.1216
v  -99.0067 509.3318 -796.1216
v  -99.0067 528.4830 -796.1216
v  0.0000 548.6196 -796.1216
v  -728.3750 381.9973 -760.4688
v  -728.3750 381.9972 760.4688
v  -728.3750 401.1483 760.4688
v  -728.3750 401.1484 -760.4688
v  -692.7222 388.5778 760.4688
v  -99.0067 509.3317 760.4688
v  0.0000 529.4683 760.4688
v  101.1326 508.8993 760.4688
v  728.3750 401.1483 796.1216
v  728.3750 381.9972 796.1216
v  692.7222 407.7289 760.4688
v  692.7222 407.7289 796.1216
v  -728.3750 381.9972 796.1216
v  -728.3750 401.1483 796.1216
v  692.7222 388.5779 -760.4688
v  101.1326 508.8994 -760.4688
v  0.0000 529.4685 -760.4688
v  -99.0067 509.3318 -760.4687
v  -728.3750 401.1484 -796.1216
v  -728.3750 381.9973 -796.1216
v  -692.7222 407.7290 -796.1216
v  728.3750 381.9973 -796.1216
v  728.3750 401.1484 -796.1216
v  692.7222 388.5778 760.4688
v  692.7222 407.7290 -760.4688
v  692.7222 388.5778 796.1216
v  -692.7222 388.5779 -760.4688
v  -692.7222 388.5779 -796.1216
v  450.7844 0.0000 -755.8950
v  443.5336 0.0000 -797.0163
v  443.5336 95.1682 -797.0163
v  450.7844 95.1682 -755.8950
v  422.6558 0.0000 -833.1778
v  422.6558 95.1682 -833.1778
v  390.6691 0.0000 -860.0178
v  390.6691 95.1682 -860.0178
v  351.4316 0.0000 -874.2991
v  351.4316 95.1682 -874.2991
v  309.6759 0.0000 -874.2992
v  309.6759 95.1682 -874.2992
v  270.4384 0.0000 -860.0179
v  270.4384 95.1682 -860.0179
v  238.4517 0.0000 -833.1779
v  238.4517 95.1682 -833.1779
v  217.5738 0.0000 -797.0164
v  217.5738 95.1682 -797.0164
v  210.3230 0.0000 -755.8950
v  210.3230 95.1682 -755.8950
v  443.5336 190.3365 -797.0163
v  450.7844 190.3365 -755.8950
v  422.6558 190.3365 -833.1778
v  390.6691 190.3365 -860.0178
v  351.4316 190.3365 -874.2991
v  309.6759 190.3365 -874.2992
v  270.4384 190.3365 -860.0179
v  238.4517 190.3365 -833.1779
v  217.5738 190.3365 -797.0164
v  210.3230 190.3365 -755.8950
v  443.5336 285.5047 -797.0163
v  450.7844 285.5047 -755.8950
v  422.6558 285.5047 -833.1778
v  390.6691 285.5047 -860.0178
v  351.4316 285.5047 -874.2991
v  309.6759 285.5047 -874.2992
v  270.4384 285.5047 -860.0179
v  238.4517 285.5047 -833.1779
v  217.5738 285.5047 -797.0164
v  210.3230 285.5047 -755.8950
v  443.5336 380.6729 -797.0163
v  450.7844 380.6729 -755.8950
v  422.6558 380.6729 -833.1778
v  390.6691 380.6729 -860.0178
v  351.4316 380.6729 -874.2991
v  309.6759 380.6729 -874.2992
v  270.4384 380.6729 -860.0179
v  238.4517 380.6729 -833.1779
v  217.5738 380.6729 -797.0164
v  210.3230 380.6729 -755.8950
v  443.5336 475.8412 -797.0163
v  450.7844 475.8412 -755.8950
v  422.6558 475.8412 -833.1778
v  390.6691 475.8412 -860.0178
v  351.4316 475.8412 -874.2991
v  309.6759 475.8412 -874.2992
v  270.4384 475.8412 -860.0179
v  238.4517 475.8412 -833.1779
v  217.5738 475.8412 -797.0164
v  210.3230 475.8412 -755.8950
v  217.5738 475.8412 -714.7737
v  238.4516 475.8412 -678.6122
v  270.4383 475.8412 -651.7722
v  309.6758 475.8412 -637.4908
v  351.4315 475.8412 -637.4908
v  390.6690 475.8412 -651.7722
v  422.6558 475.8412 -678.6122
v  443.5336 475.8412 -714.7737
v  -186.5173 0.0000 -755.8950
v  -193.7681 0.0000 -797.0163
v  -193.7681 95.1682 -797.0163
v  -186.5173 95.1682 -755.8950
v  -214.6460 0.0000 -833.1778
v  -214.6460 95.1682 -833.1778
v  -246.6327 0.0000 -860.0178
v  -246.6327 95.1682 -860.0178
v  -285.8701 0.0000 -874.2991
v  -285.8701 95.1682 -874.2991
v  -327.6258 0.0000 -874.2992
v  -327.6258 95.1682 -874.2992
v  -366.8633 0.0000 -860.0179
v  -366.8633 95.1682 -860.0179
v  -398.8501 0.0000 -833.1779
v  -398.8501 95.1682 -833.1779
v  -419.7279 0.0000 -797.0165
v  -419.7279 95.1682 -797.0165
v  -426.9788 0.0000 -755.8951
v  -426.9788 95.1682 -755.8951
v  -193.7681 190.3365 -797.0163
v  -186.5173 190.3365 -755.8950
v  -214.6460 190.3365 -833.1778
v  -246.6327 190.3365 -860.0178
v  -285.8701 190.3365 -874.2991
v  -327.6258 190.3365 -874.2992
v  -366.8633 190.3365 -860.0179
v  -398.8501 190.3365 -833.1779
v  -419.7279 190.3365 -797.0165
v  -426.9788 190.3365 -755.8951
v  -193.7681 285.5047 -797.0163
v  -186.5173 285.5047 -755.8950
v  -214.6460 285.5047 -833.1778
v  -246.6327 285.5047 -860.0178
v  -285.8701 285.5047 -874.2991
v  -327.6258 285.5047 -874.2992
v  -366.8633 285.5047 -860.0179
v  -398.8501 285.5047 -833.1779
v  -419.7279 285.5047 -797.0165
v  -426.9788 285.5047 -755.8951
v  -193.7681 380.6729 -797.0163
v  -186.5173 380.6729 -755.8950
v  -214.6460 380.6729 -833.1778
v  -246.6327 380.6729 -860.0178
v  -285.8701 380.6729 -874.2991
v  -327.6258 380.6729 -874.2992
v  -366.8633 380.6729 -860.0179
v  -398.8501 380.6729 -833.1779
v  -419.7279 380.6729 -797.0165
v  -426.9788 380.6729 -755.8951
v  -193.7681 475.8412 -797.0163
v  -186.5173 475.8412 -755.8950
v  -214.6460 475.8412 -833.1778
v  -246.6327 475.8412 -860.0178
v  -285.8701 475.8412 -874.2991
v  -327.6258 475.8412 -874.2992
v  -366.8633 475.8412 -860.0179
v  -398.8501 475.8412 -833.1779
v  -419.7279 475.8412 -797.0165
v  -426.9788 475.8412 -755.8951
v  -419.7280 475.8412 -714.7737
v  -398.8501 475.8412 -678.6122
v  -366.8634 475.8412 -651.7722
v  -327.6259 475.8412 -637.4908
v  -285.8702 475.8412 -637.4908
v  -246.6327 475.8412 -651.7722
v  -214.6460 475.8412 -678.6122
v  -193.7681 475.8412 -714.7737
v  0.0000 234.3885 -760.4688
v  -99.0067 234.0932 -760.4688
# 212 vertices

vn -0.5774 -0.5774 0.5774
vn -0.5774 -0.5774 -0.5774
vn 0.0000 -0.8944 -0.4472
vn 0.0000 -0.7071 0.7071
vn -0.1904 0.9817 0.0000
vn -0.1993 0.9799 0.0000
vn 0.0000 0.0000 1.0000
vn -0.7071 0.0000 0.7071
vn 0.5774 -0.5774 0.5774
vn 0.5774 -0.5774 -0.5774
vn 0.7071 0.0000 -0.7071
vn 0.7071 0.0000 0.7071
vn 0.0000 0.0000 -1.0000
vn -0.7071 0.0000 -0.7071
vn 0.0000 -1.0000 -0.0000
vn -0.0000 1.0000 0.0000
vn 0.1993 0.9799 0.0000
vn 0.0000 1.0000 0.0000
vn 0.1350 -0.6962 0.7051
vn 0.1409 -0.6929 0.7071
vn -0.1409 0.6929 0.7071
vn -0.1343 0.6922 0.7092
vn -0.0000 -0.6559 0.7548
vn -0.1409 -0.6929 0.7071
vn 0.1409 0.6929 0.7071
vn -0.0000 0.7470 0.6649
vn 0.6397 -0.7686 -0.0000
vn 0.7686 0.6397 0.0000
vn -0.1350 -0.6961 -0.7051
vn -0.1409 -0.6929 -0.7071
vn 0.1409 0.6929 -0.7071
vn 0.1343 0.6922 -0.7092
vn 0.0000 -0.6559 -0.7548
vn 0.1409 -0.6929 -0.7071
vn -0.1409 0.6929 -0.7071
vn 0.0000 0.7470 -0.6649
vn -0.6397 -0.7686 -0.0000
vn -0.7686 0.6397 0.0000
vn -0.1374 -0.9251 0.3540
vn -0.0000 -0.7470 0.6649
vn 0.6219 0.5177 0.5876
vn 0.5264 -0.6324 0.5684
vn 0.1904 0.9817 0.0000
vn 0.1343 0.6922 0.7092
vn -0.5264 -0.6324 0.5684
vn -0.6219 0.5177 0.5876
vn 0.1374 -0.9251 -0.3541
vn -0.0000 -0.7470 -0.6649
vn -0.6219 0.5177 -0.5876
vn -0.5264 -0.6324 -0.5684
vn -0.1342 0.6921 -0.7092
vn 0.5264 -0.6324 -0.5684
vn 0.6219 0.5177 -0.5876
vn 0.1374 -0.9251 0.3540
vn -0.1350 -0.6962 0.7051
vn -0.1374 -0.9251 -0.3540
vn 0.1350 -0.6962 -0.7051
vn 0.9848 0.0000 -0.1736
vn 0.9397 0.0000 -0.3420
vn 0.7661 0.0000 -0.6428
vn 0.5000 0.0000 -0.8660
vn 0.1736 0.0000 -0.9848
vn -0.1736 0.0000 -0.9848
vn -0.5000 0.0000 -0.8660
vn -0.7660 0.0000 -0.6428
vn -0.9397 0.0000 -0.3420
vn -0.9848 0.0000 -0.1736
vn 0.6975 0.6701 -0.2539
vn 0.4827 0.8716 -0.0851
vn 0.5686 0.6701 -0.4771
vn 0.3711 0.6701 -0.6429
vn 0.1289 0.6700 -0.7311
vn -0.1289 0.6700 -0.7311
vn -0.3712 0.6700 -0.6429
vn -0.5686 0.6701 -0.4772
vn -0.6975 0.6701 -0.2539
vn -0.4828 0.8716 -0.0851
vn 0.0000 1.0000 -0.0000
vn -0.5687 0.6700 -0.4772
vn -0.6976 0.6700 -0.2539
vn -0.0000 0.0000 -1.0000
# 81 vertex normals

vt 1.0000 0.0000 0.0000
vt 1.0000 1.0000 0.0000
vt 0.5715 1.0000 0.0000
vt 0.5715 0.0000 0.0000
vt 0.0000 0.0000 1.0000
vt 0.4285 0.0000 1.0000
vt 0.4285 1.0000 1.0000
vt 0.0000 1.0000 1.0000
vt 0.0000 0.0000 0.0000
vt 0.4285 0.0000 0.0000
vt 0.4285 0.5000 0.0000
vt 0.0000 0.5000 0.0000
vt 1.0000 0.0000 1.0000
vt 1.0000 0.5000 1.0000
vt 0.0000 0.5000 1.0000
vt 0.4270 0.0000 1.0000
vt 0.4270 0.5000 1.0000
vt 1.0000 0.5000 0.0000
vt 0.5000 1.0000 0.0000
vt 0.4270 1.0000 0.0000
vt 0.4270 0.0000 0.0000
vt 0.5000 0.0000 0.0000
vt 0.5000 0.0000 1.0000
vt 0.5730 0.0000 1.0000
vt 0.5730 1.0000 1.0000
vt 0.5000 1.0000 1.0000
vt 0.5730 0.0000 0.0000
vt 0.5730 0.5000 0.0000
vt 0.5000 0.5000 0.0000
vt 1.0000 1.0000 1.0000
vt 0.2500 0.0000 1.0000
vt 0.3056 0.0000 1.0000
vt 0.3056 0.2000 1.0000
vt 0.2500 0.2000 1.0000
vt 0.3611 0.0000 1.0000
vt 0.3611 0.2000 1.0000
vt 0.4167 0.0000 1.0000
vt 0.4167 0.2000 1.0000
vt 0.4722 0.0000 1.0000
vt 0.4722 0.2000 1.0000
vt 0.5278 0.0000 1.0000
vt 0.5278 0.2000 1.0000
vt 0.5833 0.0000 1.0000
vt 0.5833 0.2000 1.0000
vt 0.6389 0.0000 1.0000
vt 0.6389 0.2000 1.0000
vt 0.6944 0.0000 1.0000
vt 0.6944 0.2000 1.0000
vt 0.7500 0.0000 1.0000
vt 0.7500 0.2000 1.0000
vt 0.3056 0.4000 1.0000
vt 0.2500 0.4000 1.0000
vt 0.3611 0.4000 1.0000
vt 0.4167 0.4000 1.0000
vt 0.4722 0.4000 1.0000
vt 0.5278 0.4000 1.0000
vt 0.5833 0.4000 1.0000
vt 0.6389 0.4000 1.0000
vt 0.6944 0.4000 1.0000
vt 0.7500 0.4000 1.0000
vt 0.3056 0.6000 1.0000
vt 0.2500 0.6000 1.0000
vt 0.3611 0.6000 1.0000
vt 0.4167 0.6000 1.0000
vt 0.4722 0.6000 1.0000
vt 0.5278 0.6000 1.0000
vt 0.5833 0.6000 1.0000
vt 0.6389 0.6000 1.0000
vt 0.6944 0.6000 1.0000
vt 0.7500 0.6000 1.0000
vt 0.3056 0.8000 1.0000
vt 0.2500 0.8000 1.0000
vt 0.3611 0.8000 1.0000
vt 0.4167 0.8000 1.0000
vt 0.4722 0.8000 1.0000
vt 0.5278 0.8000 1.0000
vt 0.5833 0.8000 1.0000
vt 0.6389 0.8000 1.0000
vt 0.6944 0.8000 1.0000
vt 0.7500 0.8000 1.0000
vt 0.3056 1.0000 1.0000
vt 0.2500 1.0000 1.0000
vt 0.3611 1.0000 1.0000
vt 0.4167 1.0000 1.0000
vt 0.4722 1.0000 1.0000
vt 0.5278 1.0000 1.0000
vt 0.5833 1.0000 1.0000
vt 0.6389 1.0000 1.0000
vt 0.6944 1.0000 1.0000
vt 0.7500 1.0000 1.0000
vt 0.8056 1.0000 1.0000
vt 0.8611 1.0000 1.0000
vt 0.9167 1.0000 1.0000
vt 0.9722 1.0000 1.0000
vt 0.9708 1.0000 0.8794
vt 0.9126 1.0000 0.6527
vt 0.8047 1.0000 0.3473
vt 0.6600 1.0000 0.0000
vt 0.4960 1.0000 -0.3473
vt 0.3325 1.0000 -0.6527
vt 0.1891 1.0000 -0.8794
vt 0.0833 1.0000 -1.0000
vt 0.0278 1.0000 -1.0000
vt 0.0292 1.0000 -0.8794
vt 0.0874 1.0000 -0.6527
vt 0.1953 1.0000 -0.3473
vt 0.4285 1.0000 0.0000
vt 0.5000 0.5000 1.0000
vt 0.4270 1.0000 1.0000
vt 0.0000 1.0000 0.0000
vt 0.5730 1.0000 0.0000
vt 0.5715 1.0000 1.0000
vt 0.5715 0.5000 1.0000
vt 0.5715 0.0000 1.0000
# 114 texture coords

o House
g House
s 2
f 1/1/1 2/2/2 3/3/3 4/4/4 
s 4
f 5/5/5 6/6/6 7/7/6 8/8/5 
s 8
f 1/9/1 4/10/4 9/11/7 10/12/8 
s 16
f 11/5/9 12/13/10 13/14/11 14/15/12 
s 32
f 12/5/10 15/16/3 16/17/13 13/15/11 
s 64
f 2/9/2 1/1/1 10/18/8 17/12/14 
s 2
f 18/19/15 15/20/3 19/21/4 20/22/4 
s 4
f 21/23/16 22/24/17 23/25/17 24/26/18 
s 8
f 20/22/4 19/27/4 25/28/7 26/29/7 
s off
f 27/5/19 28/6/20 29/6/21 30/5/22 
f 31/23/23 32/24/24 33/24/25 34/23/26 
f 35/13/27 36/30/27 37/30/28 38/13/28 
f 39/30/29 40/25/30 41/25/31 42/30/32 
f 43/26/33 44/7/34 45/7/35 46/26/36 
f 47/8/37 48/5/37 49/5/38 50/8/38 
f 51/5/39 52/6/20 28/6/20 27/5/19 
f 53/23/40 54/24/24 32/24/24 31/23/23 
f 35/13/27 38/13/28 55/13/41 56/13/42 
f 57/13/43 22/24/17 33/24/25 58/13/44 
f 21/23/16 6/6/6 29/6/21 34/23/26 
f 49/5/38 48/5/37 59/5/45 60/5/46 
f 61/30/47 62/25/30 40/25/30 39/30/29 
f 63/26/48 64/7/34 44/7/34 43/26/33 
f 47/8/37 50/8/38 65/8/49 66/8/50 
f 8/8/5 7/7/6 45/7/35 67/8/51 
f 24/26/18 23/25/17 41/25/31 46/26/36 
f 37/30/28 36/30/27 68/30/52 69/30/53 
f 70/13/54 61/30/47 36/30/27 35/13/27 
f 61/30/47 39/30/29 68/30/52 36/30/27 
f 39/30/29 42/30/32 69/30/53 68/30/52 
f 42/30/32 71/30/43 37/30/28 69/30/53 
f 71/30/43 57/13/43 38/13/28 37/30/28 
f 57/13/43 58/13/44 55/13/41 38/13/28 
f 58/13/44 72/13/55 56/13/42 55/13/41 
f 72/13/55 70/13/54 35/13/27 56/13/42 
f 73/8/56 51/5/39 48/5/37 47/8/37 
f 51/5/39 27/5/19 59/5/45 48/5/37 
f 27/5/19 30/5/22 60/5/46 59/5/45 
f 30/5/22 5/5/5 49/5/38 60/5/46 
f 5/5/5 8/8/5 50/8/38 49/5/38 
f 8/8/5 67/8/51 65/8/49 50/8/38 
f 67/8/51 74/8/57 66/8/50 65/8/49 
f 74/8/57 73/8/56 47/8/37 66/8/50 
s 8
f 75/31/58 76/32/59 77/33/59 78/34/58 
f 76/32/59 79/35/60 80/36/60 77/33/59 
f 79/35/60 81/37/61 82/38/61 80/36/60 
f 81/37/61 83/39/62 84/40/62 82/38/61 
f 83/39/62 85/41/63 86/42/63 84/40/62 
f 85/41/63 87/43/64 88/44/64 86/42/63 
f 87/43/64 89/45/65 90/46/65 88/44/64 
f 89/45/65 91/47/66 92/48/66 90/46/65 
f 91/47/66 93/49/67 94/50/67 92/48/66 
f 78/34/58 77/33/59 95/51/59 96/52/58 
f 77/33/59 80/36/60 97/53/60 95/51/59 
f 80/36/60 82/38/61 98/54/61 97/53/60 
f 82/38/61 84/40/62 99/55/62 98/54/61 
f 84/40/62 86/42/63 100/56/63 99/55/62 
f 86/42/63 88/44/64 101/57/64 100/56/63 
f 88/44/64 90/46/65 102/58/65 101/57/64 
f 90/46/65 92/48/66 103/59/66 102/58/65 
f 92/48/66 94/50/67 104/60/67 103/59/66 
f 96/52/58 95/51/59 105/61/59 106/62/58 
f 95/51/59 97/53/60 107/63/60 105/61/59 
f 97/53/60 98/54/61 108/64/61 107/63/60 
f 98/54/61 99/55/62 109/65/62 108/64/61 
f 99/55/62 100/56/63 110/66/63 109/65/62 
f 100/56/63 101/57/64 111/67/64 110/66/63 
f 101/57/64 102/58/65 112/68/65 111/67/64 
f 102/58/65 103/59/66 113/69/66 112/68/65 
f 103/59/66 104/60/67 114/70/67 113/69/66 
f 106/62/58 105/61/59 115/71/59 116/72/58 
f 105/61/59 107/63/60 117/73/60 115/71/59 
f 107/63/60 108/64/61 118/74/61 117/73/60 
f 108/64/61 109/65/62 119/75/62 118/74/61 
f 109/65/62 110/66/63 120/76/63 119/75/62 
f 110/66/63 111/67/64 121/77/64 120/76/63 
f 111/67/64 112/68/65 122/78/65 121/77/64 
f 112/68/65 113/69/66 123/79/66 122/78/65 
f 113/69/66 114/70/67 124/80/67 123/79/66 
f 116/72/58 115/71/59 125/81/68 126/82/69 
f 115/71/59 117/73/60 127/83/70 125/81/68 
f 117/73/60 118/74/61 128/84/71 127/83/70 
f 118/74/61 119/75/62 129/85/72 128/84/71 
f 119/75/62 120/76/63 130/86/73 129/85/72 
f 120/76/63 121/77/64 131/87/74 130/86/73 
f 121/77/64 122/78/65 132/88/75 131/87/74 
f 122/78/65 123/79/66 133/89/76 132/88/75 
f 123/79/66 124/80/67 134/90/77 133/89/76 
s 1
f 133/89/76 134/90/77 135/91/78 136/92/78 137/93/78 138/94/78 139/95/78 140/96/78 141/97/78 142/98/78 126/99/69 125/100/68 127/101/70 128/102/71 129/103/72 130/104/73 131/105/74 132/106/75 
s 8
f 143/31/58 144/32/59 145/33/59 146/34/58 
f 144/32/59 147/35/60 148/36/60 145/33/59 
f 147/35/60 149/37/61 150/38/61 148/36/60 
f 149/37/61 151/39/62 152/40/62 150/38/61 
f 151/39/62 153/41/63 154/42/63 152/40/62 
f 153/41/63 155/43/64 156/44/64 154/42/63 
f 155/43/64 157/45/65 158/46/65 156/44/64 
f 157/45/65 159/47/66 160/48/66 158/46/65 
f 159/47/66 161/49/67 162/50/67 160/48/66 
f 146/34/58 145/33/59 163/51/59 164/52/58 
f 145/33/59 148/36/60 165/53/60 163/51/59 
f 148/36/60 150/38/61 166/54/61 165/53/60 
f 150/38/61 152/40/62 167/55/62 166/54/61 
f 152/40/62 154/42/63 168/56/63 167/55/62 
f 154/42/63 156/44/64 169/57/64 168/56/63 
f 156/44/64 158/46/65 170/58/65 169/57/64 
f 158/46/65 160/48/66 171/59/66 170/58/65 
f 160/48/66 162/50/67 172/60/67 171/59/66 
f 164/52/58 163/51/59 173/61/59 174/62/58 
f 163/51/59 165/53/60 175/63/60 173/61/59 
f 165/53/60 166/54/61 176/64/61 175/63/60 
f 166/54/61 167/55/62 177/65/62 176/64/61 
f 167/55/62 168/56/63 178/66/63 177/65/62 
f 168/56/63 169/57/64 179/67/64 178/66/63 
f 169/57/64 170/58/65 180/68/65 179/67/64 
f 170/58/65 171/59/66 181/69/66 180/68/65 
f 171/59/66 172/60/67 182/70/67 181/69/66 
f 174/62/58 173/61/59 183/71/59 184/72/58 
f 173/61/59 175/63/60 185/73/60 183/71/59 
f 175/63/60 176/64/61 186/74/61 185/73/60 
f 176/64/61 177/65/62 187/75/62 186/74/61 
f 177/65/62 178/66/63 188/76/63 187/75/62 
f 178/66/63 179/67/64 189/77/64 188/76/63 
f 179/67/64 180/68/65 190/78/65 189/77/64 
f 180/68/65 181/69/66 191/79/66 190/78/65 
f 181/69/66 182/70/67 192/80/67 191/79/66 
f 184/72/58 183/71/59 193/81/68 194/82/69 
f 183/71/59 185/73/60 195/83/70 193/81/68 
f 185/73/60 186/74/61 196/84/71 195/83/70 
f 186/74/61 187/75/62 197/85/72 196/84/71 
f 187/75/62 188/76/63 198/86/73 197/85/72 
f 188/76/63 189/77/64 199/87/74 198/86/73 
f 189/77/64 190/78/65 200/88/79 199/87/74 
f 190/78/65 191/79/66 201/89/80 200/88/79 
f 191/79/66 192/80/67 202/90/77 201/89/80 
s 1
f 201/89/80 202/90/77 203/91/78 204/92/78 205/93/78 206/94/78 207/95/78 208/96/78 209/97/78 210/98/78 194/99/69 193/100/68 195/101/70 196/102/71 197/103/72 198/104/73 199/105/74 200/106/79 
s 8
f 26/29/7 53/19/40 52/107/20 9/11/7 
s 16
f 13/14/11 61/30/47 70/8/54 14/15/12 
s 32
f 211/108/13 63/26/48 62/109/30 16/17/13 
s 64
f 10/18/8 51/2/39 73/110/56 17/12/14 
s 8
f 14/18/12 70/2/54 54/111/24 25/28/7 
s 32
f 17/14/14 73/30/56 64/112/34 212/113/81 
s 2
f 15/20/3 12/110/10 11/9/9 19/21/4 
s 4
f 22/24/17 57/13/43 71/30/43 23/25/17 
s 8
f 19/27/4 11/1/9 14/18/12 25/28/7 
s off
f 32/24/24 72/13/55 58/13/44 33/24/25 
f 40/25/30 43/26/33 46/26/36 41/25/31 
f 54/24/24 70/13/54 72/13/55 32/24/24 
f 22/24/17 21/23/16 34/23/26 33/24/25 
f 62/25/30 63/26/48 43/26/33 40/25/30 
f 23/25/17 71/30/43 42/30/32 41/25/31 
s 32
f 62/109/30 61/8/47 13/15/11 16/17/13 
s 8
f 54/111/24 53/19/40 26/29/7 25/28/7 
s 2
f 3/3/3 18/19/15 20/22/4 4/4/4 
s 4
f 6/6/6 21/23/16 24/26/18 7/7/6 
s 8
f 4/10/4 20/22/4 26/29/7 9/11/7 
s 32
f 3/114/3 2/13/2 17/14/14 212/113/81 
s off
f 28/6/20 31/23/23 34/23/26 29/6/21 
f 44/7/34 74/8/57 67/8/51 45/7/35 
f 52/6/20 53/23/40 31/23/23 28/6/20 
f 6/6/6 5/5/5 30/5/22 29/6/21 
f 64/7/34 73/8/56 74/8/57 44/7/34 
f 7/7/6 24/26/18 46/26/36 45/7/35 
s 8
f 52/107/20 51/110/39 10/12/8 9/11/7 
s 32
f 64/112/34 63/26/48 211/108/13 212/113/81 
# 164 polygons

