# 3ds Max Wavefront OBJ Exporter v0.97b - (c)2007 guruware
# File Created: 10.07.2021 12:21:53

#
# object House
#

v  -692.7222 -0.0000 760.4688
v  -692.7222 0.0000 -760.4688
v  -40.2856 0.0000 -760.4688
v  -99.0067 -0.0000 760.4688
v  -692.7222 407.7289 760.4688
v  -99.0067 528.4828 760.4687
v  -99.0067 528.4830 -760.4688
v  -692.7222 407.7290 -760.4688
v  -99.0067 152.6234 760.4688
v  -692.7222 150.8524 760.4688
v  692.7222 -0.0000 760.4688
v  692.7222 0.0000 -760.4688
v  692.7222 150.8524 -760.4688
v  692.7222 150.8524 760.4688
v  55.6716 0.0000 -760.4688
v  55.6716 152.6170 -760.4688
v  -692.7222 150.8524 -760.4688
v  23.3063 0.0000 -760.4688
v  39.4889 0.0000 -760.4688
v  67.4217 -0.0000 760.4688
v  33.7109 -0.0000 760.4688
v  33.7109 541.7632 760.4688
v  67.4217 534.9068 760.4688
v  67.4217 534.9069 -760.4688
v  33.7109 541.7632 -760.4688
v  67.4218 152.7176 760.4688
v  33.7109 152.8181 760.4688
v  -692.7222 388.5778 796.1216
v  -99.0067 509.3317 796.1216
v  -99.0067 528.4828 796.1216
v  -692.7222 407.7289 796.1216
v  33.7109 522.6119 796.1216
v  67.4217 515.7556 796.1216
v  67.4217 534.9068 796.1216
v  33.7109 541.7632 796.1216
v  728.3750 381.9972 760.4688
v  728.3750 381.9973 -760.4688
v  728.3750 401.1484 -760.4688
v  728.3750 401.1483 760.4688
v  692.7222 388.5779 -796.1216
v  101.1326 508.8994 -796.1216
v  101.1326 528.0505 -796.1216
v  692.7222 407.7290 -796.1216
v  -33.0022 522.7563 -796.1216
v  -66.0045 516.0441 -796.1216
v  -66.0045 535.1952 -796.1216
v  -33.0022 541.9074 -796.1216
v  -728.3750 381.9973 -760.4688
v  -728.3750 381.9972 760.4688
v  -728.3750 401.1483 760.4688
v  -728.3750 401.1484 -760.4688
v  -692.7222 388.5778 760.4688
v  -99.0067 509.3317 760.4688
v  33.7109 522.6119 760.4688
v  67.4217 515.7556 760.4688
v  728.3750 401.1483 796.1216
v  728.3750 381.9972 796.1216
v  692.7222 407.7289 760.4688
v  101.1326 528.0505 760.4688
v  101.1326 528.0505 796.1216
v  692.7222 407.7289 796.1216
v  -33.0022 541.9073 760.4688
v  -66.0045 535.1950 760.4687
v  -66.0045 535.1950 796.1216
v  -33.0022 541.9073 796.1216
v  -728.3750 381.9972 796.1216
v  -728.3750 401.1483 796.1216
v  692.7222 388.5779 -760.4688
v  101.1326 508.8994 -760.4688
v  -33.0022 522.7563 -760.4688
v  -66.0045 516.0441 -760.4687
v  -728.3750 401.1484 -796.1216
v  -728.3750 381.9973 -796.1216
v  -99.0067 528.4830 -796.1216
v  -692.7222 407.7290 -796.1216
v  67.4217 534.9069 -796.1216
v  33.7109 541.7632 -796.1216
v  728.3750 381.9973 -796.1216
v  728.3750 401.1484 -796.1216
v  692.7222 388.5778 760.4688
v  692.7222 407.7290 -760.4688
v  692.7222 388.5778 796.1216
v  -692.7222 388.5779 -760.4688
v  -692.7222 388.5779 -796.1216
v  450.7844 0.0000 -755.8950
v  443.5336 0.0000 -797.0163
v  443.5336 95.1682 -797.0163
v  450.7844 95.1682 -755.8950
v  422.6558 0.0000 -833.1778
v  422.6558 95.1682 -833.1778
v  390.6691 0.0000 -860.0178
v  390.6691 95.1682 -860.0178
v  351.4316 0.0000 -874.2991
v  351.4316 95.1682 -874.2991
v  309.6759 0.0000 -874.2992
v  309.6759 95.1682 -874.2992
v  270.4384 0.0000 -860.0179
v  270.4384 95.1682 -860.0179
v  238.4517 0.0000 -833.1779
v  238.4517 95.1682 -833.1779
v  217.5738 0.0000 -797.0164
v  217.5738 95.1682 -797.0164
v  210.3230 0.0000 -755.8950
v  210.3230 95.1682 -755.8950
v  443.5336 190.3365 -797.0163
v  450.7844 190.3365 -755.8950
v  422.6558 190.3365 -833.1778
v  390.6691 190.3365 -860.0178
v  351.4316 190.3365 -874.2991
v  309.6759 190.3365 -874.2992
v  270.4384 190.3365 -860.0179
v  238.4517 190.3365 -833.1779
v  217.5738 190.3365 -797.0164
v  210.3230 190.3365 -755.8950
v  443.5336 285.5047 -797.0163
v  450.7844 285.5047 -755.8950
v  422.6558 285.5047 -833.1778
v  390.6691 285.5047 -860.0178
v  351.4316 285.5047 -874.2991
v  309.6759 285.5047 -874.2992
v  270.4384 285.5047 -860.0179
v  238.4517 285.5047 -833.1779
v  217.5738 285.5047 -797.0164
v  210.3230 285.5047 -755.8950
v  443.5336 380.6729 -797.0163
v  450.7844 380.6729 -755.8950
v  422.6558 380.6729 -833.1778
v  390.6691 380.6729 -860.0178
v  351.4316 380.6729 -874.2991
v  309.6759 380.6729 -874.2992
v  270.4384 380.6729 -860.0179
v  238.4517 380.6729 -833.1779
v  217.5738 380.6729 -797.0164
v  210.3230 380.6729 -755.8950
v  443.5336 475.8412 -797.0163
v  450.7844 475.8412 -755.8950
v  422.6558 475.8412 -833.1778
v  390.6691 475.8412 -860.0178
v  351.4316 475.8412 -874.2991
v  309.6759 475.8412 -874.2992
v  270.4384 475.8412 -860.0179
v  238.4517 475.8412 -833.1779
v  217.5738 475.8412 -797.0164
v  210.3230 475.8412 -755.8950
v  217.5738 475.8412 -714.7737
v  238.4516 475.8412 -678.6122
v  270.4383 475.8412 -651.7722
v  309.6758 475.8412 -637.4908
v  351.4315 475.8412 -637.4908
v  390.6690 475.8412 -651.7722
v  422.6558 475.8412 -678.6122
v  443.5336 475.8412 -714.7737
v  -186.5173 0.0000 -755.8950
v  -193.7681 0.0000 -797.0163
v  -193.7681 95.1682 -797.0163
v  -186.5173 95.1682 -755.8950
v  -214.6460 0.0000 -833.1778
v  -214.6460 95.1682 -833.1778
v  -246.6327 0.0000 -860.0178
v  -246.6327 95.1682 -860.0178
v  -285.8701 0.0000 -874.2991
v  -285.8701 95.1682 -874.2991
v  -327.6258 0.0000 -874.2992
v  -327.6258 95.1682 -874.2992
v  -366.8633 0.0000 -860.0179
v  -366.8633 95.1682 -860.0179
v  -398.8501 0.0000 -833.1779
v  -398.8501 95.1682 -833.1779
v  -419.7279 0.0000 -797.0165
v  -419.7279 95.1682 -797.0165
v  -426.9788 0.0000 -755.8951
v  -426.9788 95.1682 -755.8951
v  -193.7681 190.3365 -797.0163
v  -186.5173 190.3365 -755.8950
v  -214.6460 190.3365 -833.1778
v  -246.6327 190.3365 -860.0178
v  -285.8701 190.3365 -874.2991
v  -327.6258 190.3365 -874.2992
v  -366.8633 190.3365 -860.0179
v  -398.8501 190.3365 -833.1779
v  -419.7279 190.3365 -797.0165
v  -426.9788 190.3365 -755.8951
v  -193.7681 285.5047 -797.0163
v  -186.5173 285.5047 -755.8950
v  -214.6460 285.5047 -833.1778
v  -246.6327 285.5047 -860.0178
v  -285.8701 285.5047 -874.2991
v  -327.6258 285.5047 -874.2992
v  -366.8633 285.5047 -860.0179
v  -398.8501 285.5047 -833.1779
v  -419.7279 285.5047 -797.0165
v  -426.9788 285.5047 -755.8951
v  -193.7681 380.6729 -797.0163
v  -186.5173 380.6729 -755.8950
v  -214.6460 380.6729 -833.1778
v  -246.6327 380.6729 -860.0178
v  -285.8701 380.6729 -874.2991
v  -327.6258 380.6729 -874.2992
v  -366.8633 380.6729 -860.0179
v  -398.8501 380.6729 -833.1779
v  -419.7279 380.6729 -797.0165
v  -426.9788 380.6729 -755.8951
v  -193.7681 475.8412 -797.0163
v  -186.5173 475.8412 -755.8950
v  -214.6460 475.8412 -833.1778
v  -246.6327 475.8412 -860.0178
v  -285.8701 475.8412 -874.2991
v  -327.6258 475.8412 -874.2992
v  -366.8633 475.8412 -860.0179
v  -398.8501 475.8412 -833.1779
v  -419.7279 475.8412 -797.0165
v  -426.9788 475.8412 -755.8951
v  -419.7280 475.8412 -714.7737
v  -398.8501 475.8412 -678.6122
v  -366.8634 475.8412 -651.7722
v  -327.6259 475.8412 -637.4908
v  -285.8702 475.8412 -637.4908
v  -246.6327 475.8412 -651.7722
v  -214.6460 475.8412 -678.6122
v  -193.7681 475.8412 -714.7737
v  -33.0022 522.7561 760.4688
v  -66.0045 516.0439 760.4688
v  -66.0045 152.7218 760.4688
v  -33.0022 152.8202 760.4688
v  33.7109 522.6121 -760.4688
v  67.4218 515.7558 -760.4688
v  39.4889 167.2657 -760.4688
v  23.3063 175.4129 -760.4688
v  101.1326 508.8993 760.4688
v  101.1326 152.6170 760.4688
v  -99.0067 509.3318 -760.4687
v  -40.2856 152.6234 -760.4688
v  101.1326 -0.0000 760.4688
v  101.1326 528.0505 -760.4688
v  101.1326 508.8993 796.1216
v  67.4218 515.7558 -796.1216
v  33.7109 522.6121 -796.1216
v  -24.4825 0.0000 -760.4688
v  -8.6794 0.0000 -760.4688
v  -33.0022 -0.0000 760.4688
v  -66.0045 -0.0000 760.4688
v  -33.0022 541.9074 -760.4688
v  -66.0045 535.1952 -760.4688
v  -66.0045 516.0439 796.1216
v  -33.0022 522.7561 796.1216
v  -99.0067 509.3318 -796.1216
v  -8.6794 175.4150 -760.4688
v  -24.4825 167.2699 -760.4688
v  0.0000 -0.0000 760.4688
v  7.1236 0.0000 -760.4688
v  0.0000 548.6196 -760.4688
v  0.0000 548.6195 760.4688
v  0.0000 152.9187 760.4688
v  0.0000 548.6195 796.1216
v  0.0000 529.4683 796.1216
v  0.0000 548.6196 -796.1216
v  0.0000 529.4685 -796.1216
v  0.0000 529.4683 760.4688
v  0.0000 529.4685 -760.4688
v  7.1236 177.6303 -760.4688
# 260 vertices

vn -0.5774 -0.5774 0.5774
vn -0.5774 -0.5774 -0.5774
vn -0.0000 -0.8944 -0.4472
vn 0.0000 -0.7071 0.7071
vn -0.1904 0.9817 0.0000
vn -0.1993 0.9799 0.0000
vn 0.0000 0.0000 1.0000
vn -0.7071 0.0000 0.7071
vn 0.5774 -0.5774 0.5774
vn 0.5774 -0.5774 -0.5774
vn 0.7071 0.0000 -0.7071
vn 0.7071 0.0000 0.7071
vn 0.0000 -0.8944 -0.4472
vn 0.0000 0.0000 -1.0000
vn -0.7071 0.0000 -0.7071
vn 0.0000 -1.0000 -0.0000
vn 0.1993 0.9799 0.0000
vn 0.1350 -0.6962 0.7051
vn 0.1409 -0.6929 0.7071
vn -0.1409 0.6929 0.7071
vn -0.1343 0.6922 0.7092
vn -0.1409 -0.6929 0.7071
vn 0.1409 0.6929 0.7071
vn 0.6397 -0.7686 -0.0000
vn 0.7686 0.6397 0.0000
vn -0.1350 -0.6961 -0.7051
vn -0.1409 -0.6929 -0.7071
vn 0.1409 0.6929 -0.7071
vn 0.1343 0.6922 -0.7092
vn 0.1409 -0.6929 -0.7071
vn -0.1409 0.6929 -0.7071
vn -0.6397 -0.7686 -0.0000
vn -0.7686 0.6397 0.0000
vn -0.1374 -0.9251 0.3540
vn 0.6219 0.5177 0.5876
vn 0.5264 -0.6324 0.5684
vn 0.1904 0.9817 0.0000
vn 0.1343 0.6922 0.7092
vn -0.5264 -0.6324 0.5684
vn -0.6219 0.5177 0.5876
vn 0.1374 -0.9251 -0.3541
vn -0.6219 0.5177 -0.5876
vn -0.5264 -0.6324 -0.5684
vn -0.1342 0.6921 -0.7092
vn 0.5264 -0.6324 -0.5684
vn 0.6219 0.5177 -0.5876
vn 0.1374 -0.9251 0.3540
vn -0.1350 -0.6962 0.7051
vn -0.1374 -0.9251 -0.3540
vn 0.1350 -0.6962 -0.7051
vn 0.9848 0.0000 -0.1736
vn 0.9397 0.0000 -0.3420
vn 0.7661 0.0000 -0.6428
vn 0.5000 0.0000 -0.8660
vn 0.1736 0.0000 -0.9848
vn -0.1736 0.0000 -0.9848
vn -0.5000 0.0000 -0.8660
vn -0.7660 0.0000 -0.6428
vn -0.9397 0.0000 -0.3420
vn -0.9848 0.0000 -0.1736
vn 0.6975 0.6701 -0.2539
vn 0.4827 0.8716 -0.0851
vn 0.5686 0.6701 -0.4771
vn 0.3711 0.6701 -0.6429
vn 0.1289 0.6700 -0.7311
vn -0.1289 0.6700 -0.7311
vn -0.3712 0.6700 -0.6429
vn -0.5686 0.6701 -0.4772
vn -0.6975 0.6701 -0.2539
vn -0.4828 0.8716 -0.0851
vn 0.0000 1.0000 -0.0000
vn -0.5687 0.6700 -0.4772
vn -0.6976 0.6700 -0.2539
vn -0.0000 0.0000 -1.0000
vn 0.0000 1.0000 0.0000
vn -0.0000 1.0000 0.0000
vn -0.0000 0.7470 0.6649
vn 0.0000 -0.6559 0.7549
vn 0.0000 0.7470 -0.6649
vn 0.0000 -0.6559 -0.7549
vn 0.0000 -0.7469 0.6649
vn 0.0000 -0.7469 -0.6649
# 82 vertex normals

vt 1.0000 0.0000 0.0000
vt 1.0000 1.0000 0.0000
vt 0.5715 1.0000 0.0000
vt 0.5715 0.0000 0.0000
vt 0.0000 0.0000 1.0000
vt 0.4285 0.0000 1.0000
vt 0.4285 1.0000 1.0000
vt 0.0000 1.0000 1.0000
vt 0.0000 0.0000 0.0000
vt 0.4285 0.0000 0.0000
vt 0.4285 0.5000 0.0000
vt 0.0000 0.5000 0.0000
vt 1.0000 0.0000 1.0000
vt 1.0000 0.5000 1.0000
vt 0.0000 0.5000 1.0000
vt 0.4270 0.0000 1.0000
vt 0.4270 0.5000 1.0000
vt 1.0000 0.5000 0.0000
vt 0.4757 1.0000 0.0000
vt 0.4513 1.0000 0.0000
vt 0.4513 0.0000 0.0000
vt 0.4757 0.0000 0.0000
vt 0.5243 0.0000 1.0000
vt 0.5487 0.0000 1.0000
vt 0.5487 1.0000 1.0000
vt 0.5243 1.0000 1.0000
vt 0.5243 0.0000 0.0000
vt 0.5487 0.0000 0.0000
vt 0.5487 0.5000 0.0000
vt 0.5243 0.5000 0.0000
vt 1.0000 1.0000 1.0000
vt 0.5730 1.0000 1.0000
vt 0.4762 1.0000 1.0000
vt 0.4524 1.0000 1.0000
vt 0.5730 0.0000 1.0000
vt 0.4762 0.0000 1.0000
vt 0.4524 0.0000 1.0000
vt 0.2500 0.0000 1.0000
vt 0.3056 0.0000 1.0000
vt 0.3056 0.2000 1.0000
vt 0.2500 0.2000 1.0000
vt 0.3611 0.0000 1.0000
vt 0.3611 0.2000 1.0000
vt 0.4167 0.0000 1.0000
vt 0.4167 0.2000 1.0000
vt 0.4722 0.0000 1.0000
vt 0.4722 0.2000 1.0000
vt 0.5278 0.0000 1.0000
vt 0.5278 0.2000 1.0000
vt 0.5833 0.0000 1.0000
vt 0.5833 0.2000 1.0000
vt 0.6389 0.0000 1.0000
vt 0.6389 0.2000 1.0000
vt 0.6944 0.0000 1.0000
vt 0.6944 0.2000 1.0000
vt 0.7500 0.0000 1.0000
vt 0.7500 0.2000 1.0000
vt 0.3056 0.4000 1.0000
vt 0.2500 0.4000 1.0000
vt 0.3611 0.4000 1.0000
vt 0.4167 0.4000 1.0000
vt 0.4722 0.4000 1.0000
vt 0.5278 0.4000 1.0000
vt 0.5833 0.4000 1.0000
vt 0.6389 0.4000 1.0000
vt 0.6944 0.4000 1.0000
vt 0.7500 0.4000 1.0000
vt 0.3056 0.6000 1.0000
vt 0.2500 0.6000 1.0000
vt 0.3611 0.6000 1.0000
vt 0.4167 0.6000 1.0000
vt 0.4722 0.6000 1.0000
vt 0.5278 0.6000 1.0000
vt 0.5833 0.6000 1.0000
vt 0.6389 0.6000 1.0000
vt 0.6944 0.6000 1.0000
vt 0.7500 0.6000 1.0000
vt 0.3056 0.8000 1.0000
vt 0.2500 0.8000 1.0000
vt 0.3611 0.8000 1.0000
vt 0.4167 0.8000 1.0000
vt 0.4722 0.8000 1.0000
vt 0.5278 0.8000 1.0000
vt 0.5833 0.8000 1.0000
vt 0.6389 0.8000 1.0000
vt 0.6944 0.8000 1.0000
vt 0.7500 0.8000 1.0000
vt 0.3056 1.0000 1.0000
vt 0.2500 1.0000 1.0000
vt 0.3611 1.0000 1.0000
vt 0.4167 1.0000 1.0000
vt 0.4722 1.0000 1.0000
vt 0.5278 1.0000 1.0000
vt 0.5833 1.0000 1.0000
vt 0.6389 1.0000 1.0000
vt 0.6944 1.0000 1.0000
vt 0.7500 1.0000 1.0000
vt 0.8056 1.0000 1.0000
vt 0.8611 1.0000 1.0000
vt 0.9167 1.0000 1.0000
vt 0.9722 1.0000 1.0000
vt 0.9708 1.0000 0.8794
vt 0.9126 1.0000 0.6527
vt 0.8047 1.0000 0.3473
vt 0.6600 1.0000 0.0000
vt 0.4960 1.0000 -0.3473
vt 0.3325 1.0000 -0.6527
vt 0.1891 1.0000 -0.8794
vt 0.0833 1.0000 -1.0000
vt 0.0278 1.0000 -1.0000
vt 0.0292 1.0000 -0.8794
vt 0.0874 1.0000 -0.6527
vt 0.1953 1.0000 -0.3473
vt 0.4762 1.0000 0.0000
vt 0.4524 1.0000 0.0000
vt 0.4524 0.5000 0.0000
vt 0.4762 0.5000 0.0000
vt 0.4757 1.0000 1.0000
vt 0.4513 1.0000 1.0000
vt 0.4513 0.5000 1.0000
vt 0.4757 0.5000 1.0000
vt 0.0000 1.0000 0.0000
vt 0.5730 1.0000 0.0000
vt 0.5730 0.5000 0.0000
vt 0.5715 1.0000 1.0000
vt 0.5715 0.5000 1.0000
vt 0.4270 1.0000 0.0000
vt 0.4270 0.0000 0.0000
vt 0.5730 0.0000 0.0000
vt 0.4270 1.0000 1.0000
vt 0.5487 1.0000 0.0000
vt 0.5243 1.0000 0.0000
vt 0.5476 1.0000 0.0000
vt 0.5238 1.0000 0.0000
vt 0.5238 0.0000 0.0000
vt 0.5476 0.0000 0.0000
vt 0.4524 0.0000 0.0000
vt 0.4762 0.0000 0.0000
vt 0.5715 0.0000 1.0000
vt 0.4285 1.0000 0.0000
vt 0.5476 1.0000 1.0000
vt 0.5238 1.0000 1.0000
vt 0.5238 0.5000 1.0000
vt 0.5476 0.5000 1.0000
vt 0.5000 0.0000 0.0000
vt 0.5000 1.0000 0.0000
vt 0.5000 1.0000 1.0000
vt 0.5000 0.0000 1.0000
vt 0.5000 0.5000 0.0000
vt 0.5000 0.5000 1.0000
# 150 texture coords

o House
g House
s 2
f 1/1/1 2/2/2 3/3/3 4/4/4 
s 4
f 5/5/5 6/6/6 7/7/6 8/8/5 
s 8
f 1/9/1 4/10/4 9/11/7 10/12/8 
s 16
f 11/5/9 12/13/10 13/14/11 14/15/12 
s 32
f 12/5/10 15/16/13 16/17/14 13/15/11 
s 64
f 2/9/2 1/1/1 10/18/8 17/12/15 
s 2
f 18/19/16 19/20/16 20/21/4 21/22/4 
s 4
f 22/23/17 23/24/17 24/25/17 25/26/17 
s 8
f 21/27/4 20/28/4 26/29/7 27/30/7 
s off
f 28/5/18 29/6/19 30/6/20 31/5/21 
f 32/23/22 33/24/22 34/24/23 35/23/23 
f 36/13/24 37/31/24 38/31/25 39/13/25 
f 40/31/26 41/32/27 42/32/28 43/31/29 
f 44/33/30 45/34/30 46/34/31 47/33/31 
f 48/8/32 49/5/32 50/5/33 51/8/33 
f 52/5/34 53/6/19 29/6/19 28/5/18 
f 54/23/22 55/24/22 33/24/22 32/23/22 
f 36/13/24 39/13/25 56/13/35 57/13/36 
f 58/13/37 59/35/17 60/35/23 61/13/38 
f 62/36/6 63/37/6 64/37/20 65/36/20 
f 50/5/33 49/5/32 66/5/39 67/5/40 
f 68/31/41 69/32/27 41/32/27 40/31/26 
f 70/33/30 71/34/30 45/34/30 44/33/30 
f 48/8/32 51/8/33 72/8/42 73/8/43 
f 8/8/5 7/7/6 74/7/31 75/8/44 
f 25/26/17 24/25/17 76/25/28 77/26/28 
f 38/31/25 37/31/24 78/31/45 79/31/46 
f 80/13/47 68/31/41 37/31/24 36/13/24 
f 68/31/41 40/31/26 78/31/45 37/31/24 
f 40/31/26 43/31/29 79/31/46 78/31/45 
f 43/31/29 81/31/37 38/31/25 79/31/46 
f 81/31/37 58/13/37 39/13/25 38/31/25 
f 58/13/37 61/13/38 56/13/35 39/13/25 
f 61/13/38 82/13/48 57/13/36 56/13/35 
f 82/13/48 80/13/47 36/13/24 57/13/36 
f 83/8/49 52/5/34 49/5/32 48/8/32 
f 52/5/34 28/5/18 66/5/39 49/5/32 
f 28/5/18 31/5/21 67/5/40 66/5/39 
f 31/5/21 5/5/5 50/5/33 67/5/40 
f 5/5/5 8/8/5 51/8/33 50/5/33 
f 8/8/5 75/8/44 72/8/42 51/8/33 
f 75/8/44 84/8/50 73/8/43 72/8/42 
f 84/8/50 83/8/49 48/8/32 73/8/43 
s 8
f 85/38/51 86/39/52 87/40/52 88/41/51 
f 86/39/52 89/42/53 90/43/53 87/40/52 
f 89/42/53 91/44/54 92/45/54 90/43/53 
f 91/44/54 93/46/55 94/47/55 92/45/54 
f 93/46/55 95/48/56 96/49/56 94/47/55 
f 95/48/56 97/50/57 98/51/57 96/49/56 
f 97/50/57 99/52/58 100/53/58 98/51/57 
f 99/52/58 101/54/59 102/55/59 100/53/58 
f 101/54/59 103/56/60 104/57/60 102/55/59 
f 88/41/51 87/40/52 105/58/52 106/59/51 
f 87/40/52 90/43/53 107/60/53 105/58/52 
f 90/43/53 92/45/54 108/61/54 107/60/53 
f 92/45/54 94/47/55 109/62/55 108/61/54 
f 94/47/55 96/49/56 110/63/56 109/62/55 
f 96/49/56 98/51/57 111/64/57 110/63/56 
f 98/51/57 100/53/58 112/65/58 111/64/57 
f 100/53/58 102/55/59 113/66/59 112/65/58 
f 102/55/59 104/57/60 114/67/60 113/66/59 
f 106/59/51 105/58/52 115/68/52 116/69/51 
f 105/58/52 107/60/53 117/70/53 115/68/52 
f 107/60/53 108/61/54 118/71/54 117/70/53 
f 108/61/54 109/62/55 119/72/55 118/71/54 
f 109/62/55 110/63/56 120/73/56 119/72/55 
f 110/63/56 111/64/57 121/74/57 120/73/56 
f 111/64/57 112/65/58 122/75/58 121/74/57 
f 112/65/58 113/66/59 123/76/59 122/75/58 
f 113/66/59 114/67/60 124/77/60 123/76/59 
f 116/69/51 115/68/52 125/78/52 126/79/51 
f 115/68/52 117/70/53 127/80/53 125/78/52 
f 117/70/53 118/71/54 128/81/54 127/80/53 
f 118/71/54 119/72/55 129/82/55 128/81/54 
f 119/72/55 120/73/56 130/83/56 129/82/55 
f 120/73/56 121/74/57 131/84/57 130/83/56 
f 121/74/57 122/75/58 132/85/58 131/84/57 
f 122/75/58 123/76/59 133/86/59 132/85/58 
f 123/76/59 124/77/60 134/87/60 133/86/59 
f 126/79/51 125/78/52 135/88/61 136/89/62 
f 125/78/52 127/80/53 137/90/63 135/88/61 
f 127/80/53 128/81/54 138/91/64 137/90/63 
f 128/81/54 129/82/55 139/92/65 138/91/64 
f 129/82/55 130/83/56 140/93/66 139/92/65 
f 130/83/56 131/84/57 141/94/67 140/93/66 
f 131/84/57 132/85/58 142/95/68 141/94/67 
f 132/85/58 133/86/59 143/96/69 142/95/68 
f 133/86/59 134/87/60 144/97/70 143/96/69 
s 1
f 143/96/69 144/97/70 145/98/71 146/99/71 147/100/71 148/101/71 149/102/71 150/103/71 151/104/71 152/105/71 136/106/62 135/107/61 137/108/63 138/109/64 139/110/65 140/111/66 141/112/67 142/113/68 
s 8
f 153/38/51 154/39/52 155/40/52 156/41/51 
f 154/39/52 157/42/53 158/43/53 155/40/52 
f 157/42/53 159/44/54 160/45/54 158/43/53 
f 159/44/54 161/46/55 162/47/55 160/45/54 
f 161/46/55 163/48/56 164/49/56 162/47/55 
f 163/48/56 165/50/57 166/51/57 164/49/56 
f 165/50/57 167/52/58 168/53/58 166/51/57 
f 167/52/58 169/54/59 170/55/59 168/53/58 
f 169/54/59 171/56/60 172/57/60 170/55/59 
f 156/41/51 155/40/52 173/58/52 174/59/51 
f 155/40/52 158/43/53 175/60/53 173/58/52 
f 158/43/53 160/45/54 176/61/54 175/60/53 
f 160/45/54 162/47/55 177/62/55 176/61/54 
f 162/47/55 164/49/56 178/63/56 177/62/55 
f 164/49/56 166/51/57 179/64/57 178/63/56 
f 166/51/57 168/53/58 180/65/58 179/64/57 
f 168/53/58 170/55/59 181/66/59 180/65/58 
f 170/55/59 172/57/60 182/67/60 181/66/59 
f 174/59/51 173/58/52 183/68/52 184/69/51 
f 173/58/52 175/60/53 185/70/53 183/68/52 
f 175/60/53 176/61/54 186/71/54 185/70/53 
f 176/61/54 177/62/55 187/72/55 186/71/54 
f 177/62/55 178/63/56 188/73/56 187/72/55 
f 178/63/56 179/64/57 189/74/57 188/73/56 
f 179/64/57 180/65/58 190/75/58 189/74/57 
f 180/65/58 181/66/59 191/76/59 190/75/58 
f 181/66/59 182/67/60 192/77/60 191/76/59 
f 184/69/51 183/68/52 193/78/52 194/79/51 
f 183/68/52 185/70/53 195/80/53 193/78/52 
f 185/70/53 186/71/54 196/81/54 195/80/53 
f 186/71/54 187/72/55 197/82/55 196/81/54 
f 187/72/55 188/73/56 198/83/56 197/82/55 
f 188/73/56 189/74/57 199/84/57 198/83/56 
f 189/74/57 190/75/58 200/85/58 199/84/57 
f 190/75/58 191/76/59 201/86/59 200/85/58 
f 191/76/59 192/77/60 202/87/60 201/86/59 
f 194/79/51 193/78/52 203/88/61 204/89/62 
f 193/78/52 195/80/53 205/90/63 203/88/61 
f 195/80/53 196/81/54 206/91/64 205/90/63 
f 196/81/54 197/82/55 207/92/65 206/91/64 
f 197/82/55 198/83/56 208/93/66 207/92/65 
f 198/83/56 199/84/57 209/94/67 208/93/66 
f 199/84/57 200/85/58 210/95/72 209/94/67 
f 200/85/58 201/86/59 211/96/73 210/95/72 
f 201/86/59 202/87/60 212/97/70 211/96/73 
s 1
f 211/96/73 212/97/70 213/98/71 214/99/71 215/100/71 216/101/71 217/102/71 218/103/71 219/104/71 220/105/71 204/106/62 203/107/61 205/108/63 206/109/64 207/110/65 208/111/66 209/112/67 210/113/72 
s 8
f 221/114/19 222/115/19 223/116/7 224/117/7 
s 16
f 13/14/11 68/31/41 80/8/47 14/15/12 
s 32
f 225/118/27 226/119/27 227/120/14 228/121/14 
s 64
f 10/18/8 52/2/34 83/122/49 17/12/15 
s 8
f 14/18/12 80/2/47 229/123/22 230/124/7 
s 32
f 17/14/15 83/31/49 231/125/30 232/126/74 
s 2
f 15/127/13 12/122/10 11/9/9 233/128/4 
s 4
f 59/35/17 58/13/37 81/31/37 234/32/17 
s 8
f 233/129/4 11/1/9 14/18/12 230/124/7 
s off
f 235/35/22 82/13/48 61/13/38 60/35/23 
f 236/25/27 237/26/27 77/26/28 76/25/28 
f 229/35/22 80/13/47 82/13/48 235/35/22 
f 23/24/17 22/23/17 35/23/23 34/24/23 
f 226/25/27 225/26/27 237/26/27 236/25/27 
f 234/32/17 81/31/37 43/31/29 42/32/28 
s 32
f 69/130/27 68/8/41 13/15/11 16/17/14 
s 8
f 55/131/22 54/132/22 27/30/7 26/29/7 
s 2
f 238/133/16 239/134/16 240/135/4 241/136/4 
s 4
f 63/37/6 62/36/6 242/33/6 243/34/6 
s 8
f 241/137/4 240/138/4 224/117/7 223/116/7 
s 32
f 3/139/3 2/13/2 17/14/15 232/126/74 
s off
f 244/37/19 245/36/19 65/36/20 64/37/20 
f 246/7/30 84/8/50 75/8/44 74/7/31 
f 222/37/19 221/36/19 245/36/19 244/37/19 
f 6/6/6 5/5/5 31/5/21 30/6/20 
f 231/7/30 83/8/49 84/8/50 246/7/30 
f 243/34/6 242/33/6 47/33/31 46/34/31 
s 8
f 53/140/19 52/122/34 10/12/8 9/11/7 
s 32
f 71/141/30 70/142/30 247/143/14 248/144/74 
s 2
f 19/20/16 15/127/13 233/128/4 20/21/4 
f 21/22/4 249/145/4 250/146/16 18/19/16 
s 4
f 23/24/17 59/35/17 234/32/17 24/25/17 
f 25/26/17 251/147/75 252/148/76 22/23/17 
s 8
f 20/28/4 233/129/4 230/124/7 26/29/7 
f 27/30/7 253/149/7 249/145/4 21/27/4 
s off
f 33/24/22 235/35/22 60/35/23 34/24/23 
f 35/23/23 254/148/77 255/148/78 32/23/22 
f 45/34/30 246/7/30 74/7/31 46/34/31 
f 47/33/31 256/147/79 257/147/80 44/33/30 
f 55/24/22 229/35/22 235/35/22 33/24/22 
f 32/23/22 255/148/78 258/148/81 54/23/22 
f 63/37/6 6/6/6 30/6/20 64/37/20 
f 65/36/20 254/148/77 252/148/76 62/36/6 
f 71/34/30 231/7/30 246/7/30 45/34/30 
f 44/33/30 257/147/80 259/147/82 70/33/30 
f 24/25/17 234/32/17 42/32/28 76/25/28 
f 77/26/28 256/147/79 251/147/75 25/26/17 
s 8
f 222/115/19 53/140/19 9/11/7 223/116/7 
f 224/117/7 253/149/7 258/146/81 221/114/19 
s 32
f 226/119/27 69/130/27 16/17/14 227/120/14 
f 228/121/14 260/150/14 259/147/82 225/118/27 
s off
f 237/26/27 257/147/80 256/147/79 77/26/28 
f 76/25/28 42/32/28 41/32/27 236/25/27 
f 22/23/17 252/148/76 254/148/77 35/23/23 
f 34/24/23 60/35/23 59/35/17 23/24/17 
f 225/26/27 259/147/82 257/147/80 237/26/27 
f 236/25/27 41/32/27 69/32/27 226/25/27 
s 8
f 54/132/22 258/146/81 253/149/7 27/30/7 
f 26/29/7 230/124/7 229/123/22 55/131/22 
s 2
f 239/134/16 250/146/16 249/145/4 240/135/4 
f 241/136/4 4/4/4 3/3/3 238/133/16 
s 4
f 62/36/6 252/148/76 251/147/75 242/33/6 
f 243/34/6 7/7/6 6/6/6 63/37/6 
s 8
f 240/138/4 249/145/4 253/149/7 224/117/7 
f 223/116/7 9/11/7 4/10/4 241/137/4 
s off
f 245/36/19 255/148/78 254/148/77 65/36/20 
f 64/37/20 30/6/20 29/6/19 244/37/19 
f 221/36/19 258/148/81 255/148/78 245/36/19 
f 244/37/19 29/6/19 53/6/19 222/37/19 
f 242/33/6 251/147/75 256/147/79 47/33/31 
f 46/34/31 74/7/31 7/7/6 243/34/6 
s 32
f 70/142/30 259/147/82 260/150/14 247/143/14 
f 248/144/74 232/126/74 231/125/30 71/141/30 
# 208 polygons

