# 3ds Max Wavefront OBJ Exporter v0.97b - (c)2007 guruware
# File Created: 10.07.2021 12:12:59

#
# object House
#

v  -692.7222 -0.0000 760.4688
v  -692.7222 0.0000 -760.4688
v  0.0000 0.0000 -760.4688
v  0.0000 -0.0000 760.4688
v  -692.7222 407.7289 760.4688
v  0.0000 548.6195 760.4688
v  0.0000 548.6196 -760.4688
v  -692.7222 407.7290 -760.4688
v  0.0000 529.4683 760.4688
v  -692.7222 388.5778 760.4688
v  692.7222 -0.0000 760.4688
v  692.7222 0.0000 -760.4688
v  692.7222 388.5779 -760.4688
v  692.7222 388.5778 760.4688
v  0.0000 529.4685 -760.4688
v  -692.7222 388.5779 -760.4688
v  692.7222 407.7289 760.4688
v  692.7222 407.7290 -760.4688
v  -692.7222 388.5778 796.1216
v  0.0000 529.4683 796.1216
v  0.0000 548.6195 796.1216
v  -692.7222 407.7289 796.1216
v  692.7222 388.5778 796.1216
v  692.7222 407.7289 796.1216
v  728.3750 381.9972 760.4688
v  728.3750 381.9973 -760.4688
v  728.3750 401.1484 -760.4688
v  728.3750 401.1483 760.4688
v  692.7222 388.5779 -796.1216
v  0.0000 529.4685 -796.1216
v  0.0000 548.6196 -796.1216
v  692.7222 407.7290 -796.1216
v  -692.7222 388.5779 -796.1216
v  -692.7222 407.7290 -796.1216
v  -728.3750 381.9973 -760.4688
v  -728.3750 381.9972 760.4688
v  -728.3750 401.1483 760.4688
v  -728.3750 401.1484 -760.4688
v  728.3750 401.1483 796.1216
v  728.3750 381.9972 796.1216
v  -728.3750 381.9972 796.1216
v  -728.3750 401.1483 796.1216
v  -728.3750 401.1484 -796.1216
v  -728.3750 381.9973 -796.1216
v  728.3750 381.9973 -796.1216
v  728.3750 401.1484 -796.1216
v  459.7811 0.0000 -755.8950
v  452.5303 0.0000 -797.0163
v  452.5303 95.1682 -797.0163
v  459.7811 95.1682 -755.8950
v  431.6525 0.0000 -833.1778
v  431.6525 95.1682 -833.1778
v  399.6658 0.0000 -860.0178
v  399.6658 95.1682 -860.0178
v  360.4283 0.0000 -874.2991
v  360.4283 95.1682 -874.2991
v  318.6726 0.0000 -874.2992
v  318.6726 95.1682 -874.2992
v  279.4351 0.0000 -860.0179
v  279.4351 95.1682 -860.0179
v  247.4484 0.0000 -833.1779
v  247.4484 95.1682 -833.1779
v  226.5705 0.0000 -797.0164
v  226.5705 95.1682 -797.0164
v  219.3197 0.0000 -755.8950
v  219.3197 95.1682 -755.8950
v  452.5303 190.3365 -797.0163
v  459.7811 190.3365 -755.8950
v  431.6525 190.3365 -833.1778
v  399.6658 190.3365 -860.0178
v  360.4283 190.3365 -874.2991
v  318.6726 190.3365 -874.2992
v  279.4351 190.3365 -860.0179
v  247.4484 190.3365 -833.1779
v  226.5705 190.3365 -797.0164
v  219.3197 190.3365 -755.8950
v  452.5303 285.5047 -797.0163
v  459.7811 285.5047 -755.8950
v  431.6525 285.5047 -833.1778
v  399.6658 285.5047 -860.0178
v  360.4283 285.5047 -874.2991
v  318.6726 285.5047 -874.2992
v  279.4351 285.5047 -860.0179
v  247.4484 285.5047 -833.1779
v  226.5705 285.5047 -797.0164
v  219.3197 285.5047 -755.8950
v  452.5303 380.6729 -797.0163
v  459.7811 380.6729 -755.8950
v  431.6525 380.6729 -833.1778
v  399.6658 380.6729 -860.0178
v  360.4283 380.6729 -874.2991
v  318.6726 380.6729 -874.2992
v  279.4351 380.6729 -860.0179
v  247.4484 380.6729 -833.1779
v  226.5705 380.6729 -797.0164
v  219.3197 380.6729 -755.8950
v  452.5303 475.8412 -797.0163
v  459.7811 475.8412 -755.8950
v  431.6525 475.8412 -833.1778
v  399.6658 475.8412 -860.0178
v  360.4283 475.8412 -874.2991
v  318.6726 475.8412 -874.2992
v  279.4351 475.8412 -860.0179
v  247.4484 475.8412 -833.1779
v  226.5705 475.8412 -797.0164
v  219.3197 475.8412 -755.8950
v  226.5705 475.8412 -714.7737
v  247.4483 475.8412 -678.6122
v  279.4350 475.8412 -651.7722
v  318.6725 475.8412 -637.4908
v  360.4283 475.8412 -637.4908
v  399.6657 475.8412 -651.7722
v  431.6525 475.8412 -678.6122
v  452.5303 475.8412 -714.7737
v  -191.0406 0.0000 -755.8950
v  -198.2914 0.0000 -797.0163
v  -198.2914 95.1682 -797.0163
v  -191.0406 95.1682 -755.8950
v  -219.1693 0.0000 -833.1778
v  -219.1693 95.1682 -833.1778
v  -251.1560 0.0000 -860.0178
v  -251.1560 95.1682 -860.0178
v  -290.3935 0.0000 -874.2991
v  -290.3935 95.1682 -874.2991
v  -332.1491 0.0000 -874.2992
v  -332.1491 95.1682 -874.2992
v  -371.3867 0.0000 -860.0179
v  -371.3867 95.1682 -860.0179
v  -403.3734 0.0000 -833.1779
v  -403.3734 95.1682 -833.1779
v  -424.2513 0.0000 -797.0165
v  -424.2513 95.1682 -797.0165
v  -431.5021 0.0000 -755.8951
v  -431.5021 95.1682 -755.8951
v  -198.2914 190.3365 -797.0163
v  -191.0406 190.3365 -755.8950
v  -219.1693 190.3365 -833.1778
v  -251.1560 190.3365 -860.0178
v  -290.3935 190.3365 -874.2991
v  -332.1491 190.3365 -874.2992
v  -371.3867 190.3365 -860.0179
v  -403.3734 190.3365 -833.1779
v  -424.2513 190.3365 -797.0165
v  -431.5021 190.3365 -755.8951
v  -198.2914 285.5047 -797.0163
v  -191.0406 285.5047 -755.8950
v  -219.1693 285.5047 -833.1778
v  -251.1560 285.5047 -860.0178
v  -290.3935 285.5047 -874.2991
v  -332.1491 285.5047 -874.2992
v  -371.3867 285.5047 -860.0179
v  -403.3734 285.5047 -833.1779
v  -424.2513 285.5047 -797.0165
v  -431.5021 285.5047 -755.8951
v  -198.2914 380.6729 -797.0163
v  -191.0406 380.6729 -755.8950
v  -219.1693 380.6729 -833.1778
v  -251.1560 380.6729 -860.0178
v  -290.3935 380.6729 -874.2991
v  -332.1491 380.6729 -874.2992
v  -371.3867 380.6729 -860.0179
v  -403.3734 380.6729 -833.1779
v  -424.2513 380.6729 -797.0165
v  -431.5021 380.6729 -755.8951
v  -198.2914 475.8412 -797.0163
v  -191.0406 475.8412 -755.8950
v  -219.1693 475.8412 -833.1778
v  -251.1560 475.8412 -860.0178
v  -290.3935 475.8412 -874.2991
v  -332.1491 475.8412 -874.2992
v  -371.3867 475.8412 -860.0179
v  -403.3734 475.8412 -833.1779
v  -424.2513 475.8412 -797.0165
v  -431.5021 475.8412 -755.8951
v  -424.2513 475.8412 -714.7737
v  -403.3734 475.8412 -678.6122
v  -371.3867 475.8412 -651.7722
v  -332.1492 475.8412 -637.4908
v  -290.3935 475.8412 -637.4908
v  -251.1560 475.8412 -651.7722
v  -219.1693 475.8412 -678.6122
v  -198.2914 475.8412 -714.7737
# 182 vertices

vn -0.5774 -0.5774 0.5774
vn -0.5774 -0.5774 -0.5774
vn 0.0000 -0.7071 -0.7071
vn 0.0000 -0.7071 0.7071
vn -0.1904 0.9817 0.0000
vn 0.0000 1.0000 0.0000
vn 0.0000 -0.7470 0.6649
vn -0.1374 -0.9251 0.3540
vn 0.5774 -0.5774 0.5774
vn 0.5774 -0.5774 -0.5774
vn 0.1374 -0.9251 -0.3541
vn 0.1374 -0.9251 0.3540
vn 0.0000 -0.7469 -0.6650
vn -0.1374 -0.9251 -0.3541
vn 0.1904 0.9817 0.0000
vn 0.1350 -0.6962 0.7051
vn 0.0000 -0.6559 0.7548
vn 0.0000 0.7470 0.6649
vn -0.1343 0.6922 0.7092
vn -0.1350 -0.6962 0.7051
vn 0.1343 0.6922 0.7092
vn 0.6397 -0.7686 -0.0000
vn 0.7686 0.6397 0.0000
vn -0.1350 -0.6961 -0.7051
vn 0.0000 -0.6558 -0.7549
vn 0.0000 0.7469 -0.6650
vn 0.1342 0.6921 -0.7092
vn 0.1350 -0.6961 -0.7051
vn -0.1342 0.6921 -0.7092
vn -0.6397 -0.7686 -0.0000
vn -0.7686 0.6397 0.0000
vn 0.6219 0.5177 0.5876
vn 0.5264 -0.6324 0.5684
vn -0.5264 -0.6324 0.5684
vn -0.6219 0.5177 0.5876
vn -0.6219 0.5177 -0.5876
vn -0.5264 -0.6324 -0.5684
vn 0.5264 -0.6324 -0.5684
vn 0.6219 0.5177 -0.5876
vn 0.9848 0.0000 -0.1736
vn 0.9397 0.0000 -0.3420
vn 0.7661 0.0000 -0.6428
vn 0.5000 0.0000 -0.8660
vn 0.1736 0.0000 -0.9848
vn -0.1736 0.0000 -0.9848
vn -0.5000 0.0000 -0.8660
vn -0.7660 0.0000 -0.6428
vn -0.9397 0.0000 -0.3420
vn -0.9848 0.0000 -0.1736
vn 0.6975 0.6701 -0.2539
vn 0.4827 0.8716 -0.0851
vn 0.5686 0.6701 -0.4771
vn 0.3711 0.6701 -0.6429
vn 0.1289 0.6700 -0.7311
vn -0.1289 0.6700 -0.7311
vn -0.3712 0.6700 -0.6429
vn -0.5686 0.6701 -0.4772
vn -0.6975 0.6701 -0.2539
vn -0.4828 0.8716 -0.0851
vn 0.0000 1.0000 -0.0000
vn -0.5687 0.6700 -0.4772
vn -0.6976 0.6700 -0.2539
# 62 vertex normals

vt 1.0000 0.0000 0.0000
vt 1.0000 1.0000 0.0000
vt 0.5000 1.0000 0.0000
vt 0.5000 0.0000 0.0000
vt 0.0000 0.0000 1.0000
vt 0.5000 0.0000 1.0000
vt 0.5000 1.0000 1.0000
vt 0.0000 1.0000 1.0000
vt 0.0000 0.0000 0.0000
vt 0.0000 1.0000 0.0000
vt 1.0000 0.0000 1.0000
vt 1.0000 1.0000 1.0000
vt 0.2500 0.0000 1.0000
vt 0.3056 0.0000 1.0000
vt 0.3056 0.2000 1.0000
vt 0.2500 0.2000 1.0000
vt 0.3611 0.0000 1.0000
vt 0.3611 0.2000 1.0000
vt 0.4167 0.0000 1.0000
vt 0.4167 0.2000 1.0000
vt 0.4722 0.0000 1.0000
vt 0.4722 0.2000 1.0000
vt 0.5278 0.0000 1.0000
vt 0.5278 0.2000 1.0000
vt 0.5833 0.0000 1.0000
vt 0.5833 0.2000 1.0000
vt 0.6389 0.0000 1.0000
vt 0.6389 0.2000 1.0000
vt 0.6944 0.0000 1.0000
vt 0.6944 0.2000 1.0000
vt 0.7500 0.0000 1.0000
vt 0.7500 0.2000 1.0000
vt 0.3056 0.4000 1.0000
vt 0.2500 0.4000 1.0000
vt 0.3611 0.4000 1.0000
vt 0.4167 0.4000 1.0000
vt 0.4722 0.4000 1.0000
vt 0.5278 0.4000 1.0000
vt 0.5833 0.4000 1.0000
vt 0.6389 0.4000 1.0000
vt 0.6944 0.4000 1.0000
vt 0.7500 0.4000 1.0000
vt 0.3056 0.6000 1.0000
vt 0.2500 0.6000 1.0000
vt 0.3611 0.6000 1.0000
vt 0.4167 0.6000 1.0000
vt 0.4722 0.6000 1.0000
vt 0.5278 0.6000 1.0000
vt 0.5833 0.6000 1.0000
vt 0.6389 0.6000 1.0000
vt 0.6944 0.6000 1.0000
vt 0.7500 0.6000 1.0000
vt 0.3056 0.8000 1.0000
vt 0.2500 0.8000 1.0000
vt 0.3611 0.8000 1.0000
vt 0.4167 0.8000 1.0000
vt 0.4722 0.8000 1.0000
vt 0.5278 0.8000 1.0000
vt 0.5833 0.8000 1.0000
vt 0.6389 0.8000 1.0000
vt 0.6944 0.8000 1.0000
vt 0.7500 0.8000 1.0000
vt 0.3056 1.0000 1.0000
vt 0.2500 1.0000 1.0000
vt 0.3611 1.0000 1.0000
vt 0.4167 1.0000 1.0000
vt 0.4722 1.0000 1.0000
vt 0.5278 1.0000 1.0000
vt 0.5833 1.0000 1.0000
vt 0.6389 1.0000 1.0000
vt 0.6944 1.0000 1.0000
vt 0.7500 1.0000 1.0000
vt 0.8056 1.0000 1.0000
vt 0.8611 1.0000 1.0000
vt 0.9167 1.0000 1.0000
vt 0.9722 1.0000 1.0000
vt 0.9708 1.0000 0.8794
vt 0.9126 1.0000 0.6527
vt 0.8047 1.0000 0.3473
vt 0.6600 1.0000 0.0000
vt 0.4960 1.0000 -0.3473
vt 0.3325 1.0000 -0.6527
vt 0.1891 1.0000 -0.8794
vt 0.0833 1.0000 -1.0000
vt 0.0278 1.0000 -1.0000
vt 0.0292 1.0000 -0.8794
vt 0.0874 1.0000 -0.6527
vt 0.1953 1.0000 -0.3473
# 88 texture coords

o House
g House
s 2
f 1/1/1 2/2/2 3/3/3 4/4/4 
s 4
f 5/5/5 6/6/6 7/7/6 8/8/5 
s 8
f 1/9/1 4/4/4 9/3/7 10/10/8 
s 16
f 11/5/9 12/11/10 13/12/11 14/8/12 
s 32
f 12/5/10 3/6/3 15/7/13 13/8/11 
s 64
f 2/9/2 1/1/1 10/2/8 16/10/14 
s 2
f 3/3/3 12/10/10 11/9/9 4/4/4 
s 4
f 6/6/6 17/11/15 18/12/15 7/7/6 
s 8
f 4/4/4 11/1/9 14/2/12 9/3/7 
s 32
f 3/6/3 2/11/2 16/12/14 15/7/13 
s off
f 19/5/16 20/6/17 21/6/18 22/5/19 
f 20/6/17 23/11/20 24/11/21 21/6/18 
f 25/11/22 26/12/22 27/12/23 28/11/23 
f 29/12/24 30/7/25 31/7/26 32/12/27 
f 30/7/25 33/8/28 34/8/29 31/7/26 
f 35/8/30 36/5/30 37/5/31 38/8/31 
f 10/5/8 9/6/7 20/6/17 19/5/16 
f 9/6/7 14/11/12 23/11/20 20/6/17 
f 25/11/22 28/11/23 39/11/32 40/11/33 
f 17/11/15 6/6/6 21/6/18 24/11/21 
f 6/6/6 5/5/5 22/5/19 21/6/18 
f 37/5/31 36/5/30 41/5/34 42/5/35 
f 13/12/11 15/7/13 30/7/25 29/12/24 
f 15/7/13 16/8/14 33/8/28 30/7/25 
f 35/8/30 38/8/31 43/8/36 44/8/37 
f 8/8/5 7/7/6 31/7/26 34/8/29 
f 7/7/6 18/12/15 32/12/27 31/7/26 
f 27/12/23 26/12/22 45/12/38 46/12/39 
f 14/11/12 13/12/11 26/12/22 25/11/22 
f 13/12/11 29/12/24 45/12/38 26/12/22 
f 29/12/24 32/12/27 46/12/39 45/12/38 
f 32/12/27 18/12/15 27/12/23 46/12/39 
f 18/12/15 17/11/15 28/11/23 27/12/23 
f 17/11/15 24/11/21 39/11/32 28/11/23 
f 24/11/21 23/11/20 40/11/33 39/11/32 
f 23/11/20 14/11/12 25/11/22 40/11/33 
f 16/8/14 10/5/8 36/5/30 35/8/30 
f 10/5/8 19/5/16 41/5/34 36/5/30 
f 19/5/16 22/5/19 42/5/35 41/5/34 
f 22/5/19 5/5/5 37/5/31 42/5/35 
f 5/5/5 8/8/5 38/8/31 37/5/31 
f 8/8/5 34/8/29 43/8/36 38/8/31 
f 34/8/29 33/8/28 44/8/37 43/8/36 
f 33/8/28 16/8/14 35/8/30 44/8/37 
s 8
f 47/13/40 48/14/41 49/15/41 50/16/40 
f 48/14/41 51/17/42 52/18/42 49/15/41 
f 51/17/42 53/19/43 54/20/43 52/18/42 
f 53/19/43 55/21/44 56/22/44 54/20/43 
f 55/21/44 57/23/45 58/24/45 56/22/44 
f 57/23/45 59/25/46 60/26/46 58/24/45 
f 59/25/46 61/27/47 62/28/47 60/26/46 
f 61/27/47 63/29/48 64/30/48 62/28/47 
f 63/29/48 65/31/49 66/32/49 64/30/48 
f 50/16/40 49/15/41 67/33/41 68/34/40 
f 49/15/41 52/18/42 69/35/42 67/33/41 
f 52/18/42 54/20/43 70/36/43 69/35/42 
f 54/20/43 56/22/44 71/37/44 70/36/43 
f 56/22/44 58/24/45 72/38/45 71/37/44 
f 58/24/45 60/26/46 73/39/46 72/38/45 
f 60/26/46 62/28/47 74/40/47 73/39/46 
f 62/28/47 64/30/48 75/41/48 74/40/47 
f 64/30/48 66/32/49 76/42/49 75/41/48 
f 68/34/40 67/33/41 77/43/41 78/44/40 
f 67/33/41 69/35/42 79/45/42 77/43/41 
f 69/35/42 70/36/43 80/46/43 79/45/42 
f 70/36/43 71/37/44 81/47/44 80/46/43 
f 71/37/44 72/38/45 82/48/45 81/47/44 
f 72/38/45 73/39/46 83/49/46 82/48/45 
f 73/39/46 74/40/47 84/50/47 83/49/46 
f 74/40/47 75/41/48 85/51/48 84/50/47 
f 75/41/48 76/42/49 86/52/49 85/51/48 
f 78/44/40 77/43/41 87/53/41 88/54/40 
f 77/43/41 79/45/42 89/55/42 87/53/41 
f 79/45/42 80/46/43 90/56/43 89/55/42 
f 80/46/43 81/47/44 91/57/44 90/56/43 
f 81/47/44 82/48/45 92/58/45 91/57/44 
f 82/48/45 83/49/46 93/59/46 92/58/45 
f 83/49/46 84/50/47 94/60/47 93/59/46 
f 84/50/47 85/51/48 95/61/48 94/60/47 
f 85/51/48 86/52/49 96/62/49 95/61/48 
f 88/54/40 87/53/41 97/63/50 98/64/51 
f 87/53/41 89/55/42 99/65/52 97/63/50 
f 89/55/42 90/56/43 100/66/53 99/65/52 
f 90/56/43 91/57/44 101/67/54 100/66/53 
f 91/57/44 92/58/45 102/68/55 101/67/54 
f 92/58/45 93/59/46 103/69/56 102/68/55 
f 93/59/46 94/60/47 104/70/57 103/69/56 
f 94/60/47 95/61/48 105/71/58 104/70/57 
f 95/61/48 96/62/49 106/72/59 105/71/58 
s 1
f 105/71/58 106/72/59 107/73/60 108/74/60 109/75/60 110/76/60 111/77/60 112/78/60 113/79/60 114/80/60 98/81/51 97/82/50 99/83/52 100/84/53 101/85/54 102/86/55 103/87/56 104/88/57 
s 8
f 115/13/40 116/14/41 117/15/41 118/16/40 
f 116/14/41 119/17/42 120/18/42 117/15/41 
f 119/17/42 121/19/43 122/20/43 120/18/42 
f 121/19/43 123/21/44 124/22/44 122/20/43 
f 123/21/44 125/23/45 126/24/45 124/22/44 
f 125/23/45 127/25/46 128/26/46 126/24/45 
f 127/25/46 129/27/47 130/28/47 128/26/46 
f 129/27/47 131/29/48 132/30/48 130/28/47 
f 131/29/48 133/31/49 134/32/49 132/30/48 
f 118/16/40 117/15/41 135/33/41 136/34/40 
f 117/15/41 120/18/42 137/35/42 135/33/41 
f 120/18/42 122/20/43 138/36/43 137/35/42 
f 122/20/43 124/22/44 139/37/44 138/36/43 
f 124/22/44 126/24/45 140/38/45 139/37/44 
f 126/24/45 128/26/46 141/39/46 140/38/45 
f 128/26/46 130/28/47 142/40/47 141/39/46 
f 130/28/47 132/30/48 143/41/48 142/40/47 
f 132/30/48 134/32/49 144/42/49 143/41/48 
f 136/34/40 135/33/41 145/43/41 146/44/40 
f 135/33/41 137/35/42 147/45/42 145/43/41 
f 137/35/42 138/36/43 148/46/43 147/45/42 
f 138/36/43 139/37/44 149/47/44 148/46/43 
f 139/37/44 140/38/45 150/48/45 149/47/44 
f 140/38/45 141/39/46 151/49/46 150/48/45 
f 141/39/46 142/40/47 152/50/47 151/49/46 
f 142/40/47 143/41/48 153/51/48 152/50/47 
f 143/41/48 144/42/49 154/52/49 153/51/48 
f 146/44/40 145/43/41 155/53/41 156/54/40 
f 145/43/41 147/45/42 157/55/42 155/53/41 
f 147/45/42 148/46/43 158/56/43 157/55/42 
f 148/46/43 149/47/44 159/57/44 158/56/43 
f 149/47/44 150/48/45 160/58/45 159/57/44 
f 150/48/45 151/49/46 161/59/46 160/58/45 
f 151/49/46 152/50/47 162/60/47 161/59/46 
f 152/50/47 153/51/48 163/61/48 162/60/47 
f 153/51/48 154/52/49 164/62/49 163/61/48 
f 156/54/40 155/53/41 165/63/50 166/64/51 
f 155/53/41 157/55/42 167/65/52 165/63/50 
f 157/55/42 158/56/43 168/66/53 167/65/52 
f 158/56/43 159/57/44 169/67/54 168/66/53 
f 159/57/44 160/58/45 170/68/55 169/67/54 
f 160/58/45 161/59/46 171/69/56 170/68/55 
f 161/59/46 162/60/47 172/70/61 171/69/56 
f 162/60/47 163/61/48 173/71/62 172/70/61 
f 163/61/48 164/62/49 174/72/59 173/71/62 
s 1
f 173/71/62 174/72/59 175/73/60 176/74/60 177/75/60 178/76/60 179/77/60 180/78/60 181/79/60 182/80/60 166/81/51 165/82/50 167/83/52 168/84/53 169/85/54 170/86/55 171/87/56 172/88/61 
# 136 polygons

